<mxfile host="65bd71144e" pages="4">
    <diagram id="RWeOAwpdm6szLaTIHd15" name="*ベンチマークマスタ管理_登録">
        <mxGraphModel dx="1214" dy="339" grid="0" gridSize="10" guides="1" tooltips="1" connect="1" arrows="1" fold="1" page="0" pageScale="1" pageWidth="827" pageHeight="1169" math="0" shadow="0">
            <root>
                <mxCell id="0"/>
                <mxCell id="1" parent="0"/>
                <mxCell id="R05j1q6MOaR2_SYUFppI-1" value="管理者&lt;br&gt;正規社員" style="shape=umlActor;verticalLabelPosition=bottom;verticalAlign=top;html=1;" parent="1" vertex="1">
                    <mxGeometry x="-70" y="280" width="30" height="60" as="geometry"/>
                </mxCell>
                <mxCell id="R05j1q6MOaR2_SYUFppI-2" value="ログイン済&lt;br&gt;ホーム画面" style="shape=umlBoundary;whiteSpace=wrap;html=1;fillColor=#dae8fc;strokeColor=#6c8ebf;" parent="1" vertex="1">
                    <mxGeometry x="120" y="120" width="100" height="80" as="geometry"/>
                </mxCell>
                <mxCell id="R05j1q6MOaR2_SYUFppI-3" value="ベンチマーク&lt;br&gt;情報一覧画面" style="shape=umlBoundary;whiteSpace=wrap;html=1;fillColor=#dae8fc;strokeColor=#6c8ebf;" parent="1" vertex="1">
                    <mxGeometry x="120" y="280" width="100" height="80" as="geometry"/>
                </mxCell>
                <mxCell id="R05j1q6MOaR2_SYUFppI-4" value="新規登録&lt;br&gt;画面" style="shape=umlBoundary;whiteSpace=wrap;html=1;fillColor=#dae8fc;strokeColor=#6c8ebf;" parent="1" vertex="1">
                    <mxGeometry x="120" y="440" width="100" height="80" as="geometry"/>
                </mxCell>
                <mxCell id="R05j1q6MOaR2_SYUFppI-5" value="ベンチマーク&lt;br&gt;情報を&lt;br&gt;取得する" style="ellipse;shape=umlControl;whiteSpace=wrap;html=1;fillColor=#f8cecc;strokeColor=#b85450;" parent="1" vertex="1">
                    <mxGeometry x="440" y="110" width="80" height="90" as="geometry"/>
                </mxCell>
                <mxCell id="R05j1q6MOaR2_SYUFppI-6" value="CPUベンチマークモデル&lt;span style=&quot;color: rgba(0 , 0 , 0 , 0) ; font-family: monospace ; font-size: 0px&quot;&gt;%3CmxGraphModel%3E%3Croot%3E%3CmxCell%20id%3D%220%22%2F%3E%3CmxCell%20id%3D%221%22%20parent%3D%220%22%2F%3E%3CmxCell%20id%3D%222%22%20value%3D%22%E5%A3%B2%E4%B8%8A%E6%83%85%E5%A0%B1%26lt%3Bbr%26gt%3B%E3%83%A2%E3%83%87%E3%83%AB%22%20style%3D%22ellipse%3Bshape%3DumlEntity%3BwhiteSpace%3Dwrap%3Bhtml%3D1%3BfillColor%3D%23d5e8d4%3BstrokeColor%3D%2382b366%3B%22%20vertex%3D%221%22%20parent%3D%221%22%3E%3CmxGeometry%20x%3D%22727%22%20y%3D%22407%22%20width%3D%2280%22%20height%3D%2280%22%20as%3D%22geometry%22%2F%3E%3C%2FmxCell%3E%3CmxCell%20id%3D%223%22%20value%3D%22%22%20style%3D%22endArrow%3Dclassic%3Bhtml%3D1%3Brounded%3D0%3BstartArrow%3Dclassic%3BstartFill%3D1%3B%22%20edge%3D%221%22%20parent%3D%221%22%3E%3CmxGeometry%20width%3D%2250%22%20height%3D%2250%22%20relative%3D%221%22%20as%3D%22geometry%22%3E%3CmxPoint%20x%3D%22534%22%20y%3D%22172%22%20as%3D%22sourcePoint%22%2F%3E%3CmxPoint%20x%3D%22717%22%20y%3D%22261%22%20as%3D%22targetPoint%22%2F%3E%3C%2FmxGeometry%3E%3C%2FmxCell%3E%3CmxCell%20id%3D%224%22%20value%3D%22%E5%95%86%E5%93%81%E6%83%85%E5%A0%B1%26lt%3Bbr%26gt%3B%E3%83%A2%E3%83%87%E3%83%AB%22%20style%3D%22ellipse%3Bshape%3DumlEntity%3BwhiteSpace%3Dwrap%3Bhtml%3D1%3BfillColor%3D%23d5e8d4%3BstrokeColor%3D%2382b366%3B%22%20vertex%3D%221%22%20parent%3D%221%22%3E%3CmxGeometry%20x%3D%22727%22%20y%3D%22314%22%20width%3D%2280%22%20height%3D%2280%22%20as%3D%22geometry%22%2F%3E%3C%2FmxCell%3E%3CmxCell%20id%3D%225%22%20value%3D%22%E5%BA%97%E8%88%97%E6%83%85%E5%A0%B1%26lt%3Bbr%26gt%3B%E3%83%A2%E3%83%87%E3%83%AB%22%20style%3D%22ellipse%3Bshape%3DumlEntity%3BwhiteSpace%3Dwrap%3Bhtml%3D1%3BfillColor%3D%23d5e8d4%3BstrokeColor%3D%2382b366%3B%22%20vertex%3D%221%22%20parent%3D%221%22%3E%3CmxGeometry%20x%3D%22727%22%20y%3D%22221%22%20width%3D%2280%22%20height%3D%2280%22%20as%3D%22geometry%22%2F%3E%3C%2FmxCell%3E%3CmxCell%20id%3D%226%22%20value%3D%22%E5%BE%93%E6%A5%AD%E5%93%A1%E6%83%85%E5%A0%B1%26lt%3Bbr%26gt%3B%E3%83%A2%E3%83%87%E3%83%AB%22%20style%3D%22ellipse%3Bshape%3DumlEntity%3BwhiteSpace%3Dwrap%3Bhtml%3D1%3BfillColor%3D%23d5e8d4%3BstrokeColor%3D%2382b366%3B%22%20vertex%3D%221%22%20parent%3D%221%22%3E%3CmxGeometry%20x%3D%22727%22%20y%3D%22128%22%20width%3D%2280%22%20height%3D%2280%22%20as%3D%22geometry%22%2F%3E%3C%2FmxCell%3E%3CmxCell%20id%3D%227%22%20value%3D%22%22%20style%3D%22endArrow%3Dclassic%3Bhtml%3D1%3Brounded%3D0%3BstartArrow%3Dclassic%3BstartFill%3D1%3B%22%20edge%3D%221%22%20parent%3D%221%22%3E%3CmxGeometry%20width%3D%2250%22%20height%3D%2250%22%20relative%3D%221%22%20as%3D%22geometry%22%3E%3CmxPoint%20x%3D%22530%22%20y%3D%22157%22%20as%3D%22sourcePoint%22%2F%3E%3CmxPoint%20x%3D%22714%22%20y%3D%22170%22%20as%3D%22targetPoint%22%2F%3E%3C%2FmxGeometry%3E%3C%2FmxCell%3E%3CmxCell%20id%3D%228%22%20value%3D%22%22%20style%3D%22endArrow%3Dclassic%3Bhtml%3D1%3Brounded%3D0%3BstartArrow%3Dclassic%3BstartFill%3D1%3B%22%20edge%3D%221%22%20parent%3D%221%22%3E%3CmxGeometry%20width%3D%2250%22%20height%3D%2250%22%20relative%3D%221%22%20as%3D%22geometry%22%3E%3CmxPoint%20x%3D%22526%22%20y%3D%22184%22%20as%3D%22sourcePoint%22%2F%3E%3CmxPoint%20x%3D%22718%22%20y%3D%22346%22%20as%3D%22targetPoint%22%2F%3E%3C%2FmxGeometry%3E%3C%2FmxCell%3E%3CmxCell%20id%3D%229%22%20value%3D%22%22%20style%3D%22endArrow%3Dclassic%3Bhtml%3D1%3Brounded%3D0%3BstartArrow%3Dclassic%3BstartFill%3D1%3B%22%20edge%3D%221%22%20parent%3D%221%22%3E%3CmxGeometry%20width%3D%2250%22%20height%3D%2250%22%20relative%3D%221%22%20as%3D%22geometry%22%3E%3CmxPoint%20x%3D%22518%22%20y%3D%22197%22%20as%3D%22sourcePoint%22%2F%3E%3CmxPoint%20x%3D%22717%22%20y%3D%22447%22%20as%3D%22targetPoint%22%2F%3E%3C%2FmxGeometry%3E%3C%2FmxCell%3E%3C%2Froot%3E%3C%2FmxGraphModel%3E&lt;/span&gt;" style="ellipse;shape=umlEntity;whiteSpace=wrap;html=1;fillColor=#d5e8d4;strokeColor=#82b366;" parent="1" vertex="1">
                    <mxGeometry x="720" y="200" width="80" height="80" as="geometry"/>
                </mxCell>
                <mxCell id="R05j1q6MOaR2_SYUFppI-7" value="表示する" style="ellipse;shape=umlControl;whiteSpace=wrap;html=1;fillColor=#f8cecc;strokeColor=#b85450;" parent="1" vertex="1">
                    <mxGeometry x="440" y="280" width="70" height="80" as="geometry"/>
                </mxCell>
                <mxCell id="R05j1q6MOaR2_SYUFppI-8" value="" style="endArrow=classic;html=1;rounded=0;" parent="1" edge="1">
                    <mxGeometry width="50" height="50" relative="1" as="geometry">
                        <mxPoint x="235" y="319.28999999999996" as="sourcePoint"/>
                        <mxPoint x="430" y="319" as="targetPoint"/>
                    </mxGeometry>
                </mxCell>
                <mxCell id="R05j1q6MOaR2_SYUFppI-10" value="" style="endArrow=classic;html=1;rounded=0;" parent="1" edge="1">
                    <mxGeometry width="50" height="50" relative="1" as="geometry">
                        <mxPoint x="-30" y="320" as="sourcePoint"/>
                        <mxPoint x="110" y="160" as="targetPoint"/>
                    </mxGeometry>
                </mxCell>
                <mxCell id="3" value="「ベンチマークマスタ情報」&lt;br&gt;を押下" style="edgeLabel;html=1;align=center;verticalAlign=middle;resizable=0;points=[];" parent="R05j1q6MOaR2_SYUFppI-10" vertex="1" connectable="0">
                    <mxGeometry x="0.2118" y="-2" relative="1" as="geometry">
                        <mxPoint x="-9" y="10" as="offset"/>
                    </mxGeometry>
                </mxCell>
                <mxCell id="R05j1q6MOaR2_SYUFppI-11" value="" style="endArrow=classic;html=1;rounded=0;" parent="1" edge="1">
                    <mxGeometry width="50" height="50" relative="1" as="geometry">
                        <mxPoint x="-30" y="320" as="sourcePoint"/>
                        <mxPoint x="110" y="480" as="targetPoint"/>
                    </mxGeometry>
                </mxCell>
                <mxCell id="8" value="ベンチマークマスタ情報&lt;br&gt;を入力" style="edgeLabel;html=1;align=center;verticalAlign=middle;resizable=0;points=[];" parent="R05j1q6MOaR2_SYUFppI-11" vertex="1" connectable="0">
                    <mxGeometry x="-0.227" y="-2" relative="1" as="geometry">
                        <mxPoint x="17" y="7" as="offset"/>
                    </mxGeometry>
                </mxCell>
                <mxCell id="R05j1q6MOaR2_SYUFppI-12" value="" style="endArrow=classic;html=1;rounded=0;" parent="1" edge="1">
                    <mxGeometry width="50" height="50" relative="1" as="geometry">
                        <mxPoint x="-30" y="320" as="sourcePoint"/>
                        <mxPoint x="110" y="320" as="targetPoint"/>
                    </mxGeometry>
                </mxCell>
                <mxCell id="4" value="「新規登録」を押下" style="edgeLabel;html=1;align=center;verticalAlign=middle;resizable=0;points=[];" parent="R05j1q6MOaR2_SYUFppI-12" vertex="1" connectable="0">
                    <mxGeometry x="-0.3413" y="-4" relative="1" as="geometry">
                        <mxPoint x="24" y="-4" as="offset"/>
                    </mxGeometry>
                </mxCell>
                <mxCell id="R05j1q6MOaR2_SYUFppI-13" value="" style="endArrow=classic;html=1;rounded=0;startArrow=classic;startFill=1;" parent="1" edge="1">
                    <mxGeometry width="50" height="50" relative="1" as="geometry">
                        <mxPoint x="520" y="160" as="sourcePoint"/>
                        <mxPoint x="710" y="240" as="targetPoint"/>
                    </mxGeometry>
                </mxCell>
                <mxCell id="R05j1q6MOaR2_SYUFppI-14" value="" style="endArrow=classic;html=1;rounded=0;" parent="1" edge="1">
                    <mxGeometry width="50" height="50" relative="1" as="geometry">
                        <mxPoint x="230" y="159.58000000000004" as="sourcePoint"/>
                        <mxPoint x="425" y="159.29000000000008" as="targetPoint"/>
                    </mxGeometry>
                </mxCell>
                <mxCell id="R05j1q6MOaR2_SYUFppI-15" value="" style="endArrow=classic;html=1;rounded=0;" parent="1" edge="1">
                    <mxGeometry width="50" height="50" relative="1" as="geometry">
                        <mxPoint x="430" y="170" as="sourcePoint"/>
                        <mxPoint x="240" y="310" as="targetPoint"/>
                    </mxGeometry>
                </mxCell>
                <mxCell id="R05j1q6MOaR2_SYUFppI-16" value="" style="endArrow=classic;html=1;rounded=0;" parent="1" edge="1">
                    <mxGeometry width="50" height="50" relative="1" as="geometry">
                        <mxPoint x="430" y="330" as="sourcePoint"/>
                        <mxPoint x="240" y="470" as="targetPoint"/>
                    </mxGeometry>
                </mxCell>
                <mxCell id="R05j1q6MOaR2_SYUFppI-20" value="" style="endArrow=classic;html=1;rounded=0;startArrow=classic;startFill=1;" parent="1" edge="1">
                    <mxGeometry width="50" height="50" relative="1" as="geometry">
                        <mxPoint x="240" y="479.5799999999999" as="sourcePoint"/>
                        <mxPoint x="430" y="600" as="targetPoint"/>
                    </mxGeometry>
                </mxCell>
                <mxCell id="R05j1q6MOaR2_SYUFppI-21" value="" style="endArrow=classic;html=1;rounded=0;startArrow=classic;startFill=1;" parent="1" edge="1">
                    <mxGeometry width="50" height="50" relative="1" as="geometry">
                        <mxPoint x="520" y="480" as="sourcePoint"/>
                        <mxPoint x="710" y="250" as="targetPoint"/>
                    </mxGeometry>
                </mxCell>
                <mxCell id="S3Q7KRvCaLWE7IMsoWQz-9" value="ベンチマーク情報&lt;br&gt;を登録" style="edgeLabel;html=1;align=center;verticalAlign=middle;resizable=0;points=[];" parent="R05j1q6MOaR2_SYUFppI-21" vertex="1" connectable="0">
                    <mxGeometry x="0.3181" y="-1" relative="1" as="geometry">
                        <mxPoint x="-1" as="offset"/>
                    </mxGeometry>
                </mxCell>
                <mxCell id="2" value="ベンチマークマスタ_登録" style="rounded=0;whiteSpace=wrap;html=1;fillColor=#ffe6cc;strokeColor=#d79b00;fontStyle=1;fontSize=18;" parent="1" vertex="1">
                    <mxGeometry x="-150" y="70" width="250" height="60" as="geometry"/>
                </mxCell>
                <mxCell id="5" value="入力データ検証" style="ellipse;shape=umlControl;whiteSpace=wrap;html=1;fillColor=#f8cecc;strokeColor=#b85450;" parent="1" vertex="1">
                    <mxGeometry x="440" y="560" width="70" height="80" as="geometry"/>
                </mxCell>
                <mxCell id="6" value="登録する" style="ellipse;shape=umlControl;whiteSpace=wrap;html=1;fillColor=#f8cecc;strokeColor=#b85450;" parent="1" vertex="1">
                    <mxGeometry x="440" y="440" width="70" height="80" as="geometry"/>
                </mxCell>
                <mxCell id="7" value="" style="endArrow=classic;html=1;rounded=0;" parent="1" source="5" edge="1">
                    <mxGeometry width="50" height="50" relative="1" as="geometry">
                        <mxPoint x="475" y="550" as="sourcePoint"/>
                        <mxPoint x="475" y="530" as="targetPoint"/>
                    </mxGeometry>
                </mxCell>
                <mxCell id="9" value="" style="curved=1;endArrow=classic;html=1;rounded=0;" parent="1" edge="1">
                    <mxGeometry width="50" height="50" relative="1" as="geometry">
                        <mxPoint x="520" y="460" as="sourcePoint"/>
                        <mxPoint x="520" y="170" as="targetPoint"/>
                        <Array as="points">
                            <mxPoint x="600" y="250"/>
                        </Array>
                    </mxGeometry>
                </mxCell>
                <mxCell id="10" value="GPUベンチマークモデル&lt;span style=&quot;color: rgba(0 , 0 , 0 , 0) ; font-family: monospace ; font-size: 0px&quot;&gt;%3CmxGraphModel%3E%3Croot%3E%3CmxCell%20id%3D%220%22%2F%3E%3CmxCell%20id%3D%221%22%20parent%3D%220%22%2F%3E%3CmxCell%20id%3D%222%22%20value%3D%22%E5%A3%B2%E4%B8%8A%E6%83%85%E5%A0%B1%26lt%3Bbr%26gt%3B%E3%83%A2%E3%83%87%E3%83%AB%22%20style%3D%22ellipse%3Bshape%3DumlEntity%3BwhiteSpace%3Dwrap%3Bhtml%3D1%3BfillColor%3D%23d5e8d4%3BstrokeColor%3D%2382b366%3B%22%20vertex%3D%221%22%20parent%3D%221%22%3E%3CmxGeometry%20x%3D%22727%22%20y%3D%22407%22%20width%3D%2280%22%20height%3D%2280%22%20as%3D%22geometry%22%2F%3E%3C%2FmxCell%3E%3CmxCell%20id%3D%223%22%20value%3D%22%22%20style%3D%22endArrow%3Dclassic%3Bhtml%3D1%3Brounded%3D0%3BstartArrow%3Dclassic%3BstartFill%3D1%3B%22%20edge%3D%221%22%20parent%3D%221%22%3E%3CmxGeometry%20width%3D%2250%22%20height%3D%2250%22%20relative%3D%221%22%20as%3D%22geometry%22%3E%3CmxPoint%20x%3D%22534%22%20y%3D%22172%22%20as%3D%22sourcePoint%22%2F%3E%3CmxPoint%20x%3D%22717%22%20y%3D%22261%22%20as%3D%22targetPoint%22%2F%3E%3C%2FmxGeometry%3E%3C%2FmxCell%3E%3CmxCell%20id%3D%224%22%20value%3D%22%E5%95%86%E5%93%81%E6%83%85%E5%A0%B1%26lt%3Bbr%26gt%3B%E3%83%A2%E3%83%87%E3%83%AB%22%20style%3D%22ellipse%3Bshape%3DumlEntity%3BwhiteSpace%3Dwrap%3Bhtml%3D1%3BfillColor%3D%23d5e8d4%3BstrokeColor%3D%2382b366%3B%22%20vertex%3D%221%22%20parent%3D%221%22%3E%3CmxGeometry%20x%3D%22727%22%20y%3D%22314%22%20width%3D%2280%22%20height%3D%2280%22%20as%3D%22geometry%22%2F%3E%3C%2FmxCell%3E%3CmxCell%20id%3D%225%22%20value%3D%22%E5%BA%97%E8%88%97%E6%83%85%E5%A0%B1%26lt%3Bbr%26gt%3B%E3%83%A2%E3%83%87%E3%83%AB%22%20style%3D%22ellipse%3Bshape%3DumlEntity%3BwhiteSpace%3Dwrap%3Bhtml%3D1%3BfillColor%3D%23d5e8d4%3BstrokeColor%3D%2382b366%3B%22%20vertex%3D%221%22%20parent%3D%221%22%3E%3CmxGeometry%20x%3D%22727%22%20y%3D%22221%22%20width%3D%2280%22%20height%3D%2280%22%20as%3D%22geometry%22%2F%3E%3C%2FmxCell%3E%3CmxCell%20id%3D%226%22%20value%3D%22%E5%BE%93%E6%A5%AD%E5%93%A1%E6%83%85%E5%A0%B1%26lt%3Bbr%26gt%3B%E3%83%A2%E3%83%87%E3%83%AB%22%20style%3D%22ellipse%3Bshape%3DumlEntity%3BwhiteSpace%3Dwrap%3Bhtml%3D1%3BfillColor%3D%23d5e8d4%3BstrokeColor%3D%2382b366%3B%22%20vertex%3D%221%22%20parent%3D%221%22%3E%3CmxGeometry%20x%3D%22727%22%20y%3D%22128%22%20width%3D%2280%22%20height%3D%2280%22%20as%3D%22geometry%22%2F%3E%3C%2FmxCell%3E%3CmxCell%20id%3D%227%22%20value%3D%22%22%20style%3D%22endArrow%3Dclassic%3Bhtml%3D1%3Brounded%3D0%3BstartArrow%3Dclassic%3BstartFill%3D1%3B%22%20edge%3D%221%22%20parent%3D%221%22%3E%3CmxGeometry%20width%3D%2250%22%20height%3D%2250%22%20relative%3D%221%22%20as%3D%22geometry%22%3E%3CmxPoint%20x%3D%22530%22%20y%3D%22157%22%20as%3D%22sourcePoint%22%2F%3E%3CmxPoint%20x%3D%22714%22%20y%3D%22170%22%20as%3D%22targetPoint%22%2F%3E%3C%2FmxGeometry%3E%3C%2FmxCell%3E%3CmxCell%20id%3D%228%22%20value%3D%22%22%20style%3D%22endArrow%3Dclassic%3Bhtml%3D1%3Brounded%3D0%3BstartArrow%3Dclassic%3BstartFill%3D1%3B%22%20edge%3D%221%22%20parent%3D%221%22%3E%3CmxGeometry%20width%3D%2250%22%20height%3D%2250%22%20relative%3D%221%22%20as%3D%22geometry%22%3E%3CmxPoint%20x%3D%22526%22%20y%3D%22184%22%20as%3D%22sourcePoint%22%2F%3E%3CmxPoint%20x%3D%22718%22%20y%3D%22346%22%20as%3D%22targetPoint%22%2F%3E%3C%2FmxGeometry%3E%3C%2FmxCell%3E%3CmxCell%20id%3D%229%22%20value%3D%22%22%20style%3D%22endArrow%3Dclassic%3Bhtml%3D1%3Brounded%3D0%3BstartArrow%3Dclassic%3BstartFill%3D1%3B%22%20edge%3D%221%22%20parent%3D%221%22%3E%3CmxGeometry%20width%3D%2250%22%20height%3D%2250%22%20relative%3D%221%22%20as%3D%22geometry%22%3E%3CmxPoint%20x%3D%22518%22%20y%3D%22197%22%20as%3D%22sourcePoint%22%2F%3E%3CmxPoint%20x%3D%22717%22%20y%3D%22447%22%20as%3D%22targetPoint%22%2F%3E%3C%2FmxGeometry%3E%3C%2FmxCell%3E%3C%2Froot%3E%3C%2FmxGraphModel%3E&lt;/span&gt;" style="ellipse;shape=umlEntity;whiteSpace=wrap;html=1;fillColor=#d5e8d4;strokeColor=#82b366;" parent="1" vertex="1">
                    <mxGeometry x="720" y="104" width="80" height="80" as="geometry"/>
                </mxCell>
                <mxCell id="11" value="" style="endArrow=classic;html=1;rounded=0;startArrow=classic;startFill=1;" parent="1" edge="1">
                    <mxGeometry width="50" height="50" relative="1" as="geometry">
                        <mxPoint x="530" y="153" as="sourcePoint"/>
                        <mxPoint x="709" y="143" as="targetPoint"/>
                    </mxGeometry>
                </mxCell>
            </root>
        </mxGraphModel>
    </diagram>
    <diagram id="kNyEyUyUbylaJBoFLzu6" name="*ベンチマークマスタ管理_参照">
        <mxGraphModel dx="1214" dy="339" grid="0" gridSize="10" guides="1" tooltips="1" connect="1" arrows="1" fold="1" page="0" pageScale="1" pageWidth="827" pageHeight="1169" math="0" shadow="0">
            <root>
                <mxCell id="Noq5ilU5FU8ZEYIdX7iq-0"/>
                <mxCell id="Noq5ilU5FU8ZEYIdX7iq-1" parent="Noq5ilU5FU8ZEYIdX7iq-0"/>
                <mxCell id="X151rZw9UmWIeHh70C7F-1" value="ログイン済&lt;br&gt;ホーム画面" style="shape=umlBoundary;whiteSpace=wrap;html=1;fillColor=#dae8fc;strokeColor=#6c8ebf;" parent="Noq5ilU5FU8ZEYIdX7iq-1" vertex="1">
                    <mxGeometry x="120" y="120" width="100" height="80" as="geometry"/>
                </mxCell>
                <mxCell id="X151rZw9UmWIeHh70C7F-2" value="詳細画面" style="shape=umlBoundary;whiteSpace=wrap;html=1;fillColor=#dae8fc;strokeColor=#6c8ebf;" parent="Noq5ilU5FU8ZEYIdX7iq-1" vertex="1">
                    <mxGeometry x="120" y="440" width="100" height="80" as="geometry"/>
                </mxCell>
                <mxCell id="X151rZw9UmWIeHh70C7F-7" value="ベンチマーク情報" style="ellipse;shape=umlEntity;whiteSpace=wrap;html=1;fillColor=#d5e8d4;strokeColor=#82b366;" parent="Noq5ilU5FU8ZEYIdX7iq-1" vertex="1">
                    <mxGeometry x="720" y="200" width="80" height="80" as="geometry"/>
                </mxCell>
                <mxCell id="X151rZw9UmWIeHh70C7F-8" value="表示する" style="ellipse;shape=umlControl;whiteSpace=wrap;html=1;fillColor=#f8cecc;strokeColor=#b85450;" parent="Noq5ilU5FU8ZEYIdX7iq-1" vertex="1">
                    <mxGeometry x="440" y="280" width="70" height="80" as="geometry"/>
                </mxCell>
                <mxCell id="X151rZw9UmWIeHh70C7F-9" value="" style="endArrow=classic;html=1;rounded=0;" parent="Noq5ilU5FU8ZEYIdX7iq-1" edge="1">
                    <mxGeometry width="50" height="50" relative="1" as="geometry">
                        <mxPoint x="240" y="159.17000000000007" as="sourcePoint"/>
                        <mxPoint x="430" y="159.0000000000001" as="targetPoint"/>
                    </mxGeometry>
                </mxCell>
                <mxCell id="X151rZw9UmWIeHh70C7F-11" value="" style="endArrow=classic;html=1;rounded=0;startArrow=classic;startFill=1;" parent="Noq5ilU5FU8ZEYIdX7iq-1" edge="1">
                    <mxGeometry width="50" height="50" relative="1" as="geometry">
                        <mxPoint x="520" y="159.9999999999999" as="sourcePoint"/>
                        <mxPoint x="710.0000000000005" y="240" as="targetPoint"/>
                    </mxGeometry>
                </mxCell>
                <mxCell id="X151rZw9UmWIeHh70C7F-12" value="" style="endArrow=none;html=1;rounded=0;jumpStyle=none;startArrow=classic;startFill=1;endFill=0;" parent="Noq5ilU5FU8ZEYIdX7iq-1" edge="1">
                    <mxGeometry width="50" height="50" relative="1" as="geometry">
                        <mxPoint x="430" y="320" as="sourcePoint"/>
                        <mxPoint x="240" y="320" as="targetPoint"/>
                    </mxGeometry>
                </mxCell>
                <mxCell id="X151rZw9UmWIeHh70C7F-13" value="" style="endArrow=classic;html=1;rounded=0;" parent="Noq5ilU5FU8ZEYIdX7iq-1" edge="1">
                    <mxGeometry width="50" height="50" relative="1" as="geometry">
                        <mxPoint x="430" y="170" as="sourcePoint"/>
                        <mxPoint x="240" y="310" as="targetPoint"/>
                    </mxGeometry>
                </mxCell>
                <mxCell id="X151rZw9UmWIeHh70C7F-14" value="" style="endArrow=none;html=1;rounded=0;jumpStyle=none;startArrow=classic;startFill=1;endFill=0;" parent="Noq5ilU5FU8ZEYIdX7iq-1" edge="1">
                    <mxGeometry width="50" height="50" relative="1" as="geometry">
                        <mxPoint x="240" y="480" as="sourcePoint"/>
                        <mxPoint x="430" y="330" as="targetPoint"/>
                    </mxGeometry>
                </mxCell>
                <mxCell id="X151rZw9UmWIeHh70C7F-15" value="ベンチマーク&lt;br&gt;情報一覧画面" style="shape=umlBoundary;whiteSpace=wrap;html=1;fillColor=#dae8fc;strokeColor=#6c8ebf;" parent="Noq5ilU5FU8ZEYIdX7iq-1" vertex="1">
                    <mxGeometry x="120" y="280" width="100" height="80" as="geometry"/>
                </mxCell>
                <mxCell id="6jQ6UgOFRzboO_oVdpWV-0" value="ベンチマーク&lt;br&gt;情報を&lt;br&gt;取得する" style="ellipse;shape=umlControl;whiteSpace=wrap;html=1;fillColor=#f8cecc;strokeColor=#b85450;" parent="Noq5ilU5FU8ZEYIdX7iq-1" vertex="1">
                    <mxGeometry x="440" y="110" width="80" height="90" as="geometry"/>
                </mxCell>
                <mxCell id="dUlQ4flZGrjJP7amC4kk-0" value="ベンチマークマスタ_参照" style="rounded=0;whiteSpace=wrap;html=1;fillColor=#ffe6cc;strokeColor=#d79b00;fontStyle=1;fontSize=18;" parent="Noq5ilU5FU8ZEYIdX7iq-1" vertex="1">
                    <mxGeometry x="-159" y="77" width="250" height="60" as="geometry"/>
                </mxCell>
                <mxCell id="cIIOQEor-hzKWbsgji4y-0" value="管理者&lt;br&gt;正規社員" style="shape=umlActor;verticalLabelPosition=bottom;verticalAlign=top;html=1;" parent="Noq5ilU5FU8ZEYIdX7iq-1" vertex="1">
                    <mxGeometry x="-70" y="280" width="30" height="60" as="geometry"/>
                </mxCell>
                <mxCell id="cIIOQEor-hzKWbsgji4y-1" value="" style="endArrow=classic;html=1;rounded=0;" parent="Noq5ilU5FU8ZEYIdX7iq-1" edge="1">
                    <mxGeometry width="50" height="50" relative="1" as="geometry">
                        <mxPoint x="-30" y="320" as="sourcePoint"/>
                        <mxPoint x="110" y="160" as="targetPoint"/>
                    </mxGeometry>
                </mxCell>
                <mxCell id="cIIOQEor-hzKWbsgji4y-2" value="「ベンチマークマスタ情報」&lt;br&gt;を押下" style="edgeLabel;html=1;align=center;verticalAlign=middle;resizable=0;points=[];" parent="cIIOQEor-hzKWbsgji4y-1" vertex="1" connectable="0">
                    <mxGeometry x="0.2118" y="-2" relative="1" as="geometry">
                        <mxPoint x="-9" y="10" as="offset"/>
                    </mxGeometry>
                </mxCell>
                <mxCell id="cIIOQEor-hzKWbsgji4y-3" value="" style="endArrow=classic;html=1;rounded=0;" parent="Noq5ilU5FU8ZEYIdX7iq-1" edge="1">
                    <mxGeometry width="50" height="50" relative="1" as="geometry">
                        <mxPoint x="-30" y="320" as="sourcePoint"/>
                        <mxPoint x="110" y="480" as="targetPoint"/>
                    </mxGeometry>
                </mxCell>
                <mxCell id="cIIOQEor-hzKWbsgji4y-5" value="" style="endArrow=classic;html=1;rounded=0;" parent="Noq5ilU5FU8ZEYIdX7iq-1" edge="1">
                    <mxGeometry width="50" height="50" relative="1" as="geometry">
                        <mxPoint x="-30" y="320" as="sourcePoint"/>
                        <mxPoint x="110" y="320" as="targetPoint"/>
                    </mxGeometry>
                </mxCell>
                <mxCell id="cIIOQEor-hzKWbsgji4y-7" value="ベンチマーク情報&lt;br&gt;を選択" style="edgeLabel;html=1;align=center;verticalAlign=middle;resizable=0;points=[];" parent="cIIOQEor-hzKWbsgji4y-5" vertex="1" connectable="0">
                    <mxGeometry x="0.3238" y="1" relative="1" as="geometry">
                        <mxPoint x="-13" y="1" as="offset"/>
                    </mxGeometry>
                </mxCell>
                <mxCell id="pjxCZVeYTB7br9TRvnxd-0" value="CPUベンチマークモデル&lt;span style=&quot;color: rgba(0 , 0 , 0 , 0) ; font-family: monospace ; font-size: 0px&quot;&gt;%3CmxGraphModel%3E%3Croot%3E%3CmxCell%20id%3D%220%22%2F%3E%3CmxCell%20id%3D%221%22%20parent%3D%220%22%2F%3E%3CmxCell%20id%3D%222%22%20value%3D%22%E5%A3%B2%E4%B8%8A%E6%83%85%E5%A0%B1%26lt%3Bbr%26gt%3B%E3%83%A2%E3%83%87%E3%83%AB%22%20style%3D%22ellipse%3Bshape%3DumlEntity%3BwhiteSpace%3Dwrap%3Bhtml%3D1%3BfillColor%3D%23d5e8d4%3BstrokeColor%3D%2382b366%3B%22%20vertex%3D%221%22%20parent%3D%221%22%3E%3CmxGeometry%20x%3D%22727%22%20y%3D%22407%22%20width%3D%2280%22%20height%3D%2280%22%20as%3D%22geometry%22%2F%3E%3C%2FmxCell%3E%3CmxCell%20id%3D%223%22%20value%3D%22%22%20style%3D%22endArrow%3Dclassic%3Bhtml%3D1%3Brounded%3D0%3BstartArrow%3Dclassic%3BstartFill%3D1%3B%22%20edge%3D%221%22%20parent%3D%221%22%3E%3CmxGeometry%20width%3D%2250%22%20height%3D%2250%22%20relative%3D%221%22%20as%3D%22geometry%22%3E%3CmxPoint%20x%3D%22534%22%20y%3D%22172%22%20as%3D%22sourcePoint%22%2F%3E%3CmxPoint%20x%3D%22717%22%20y%3D%22261%22%20as%3D%22targetPoint%22%2F%3E%3C%2FmxGeometry%3E%3C%2FmxCell%3E%3CmxCell%20id%3D%224%22%20value%3D%22%E5%95%86%E5%93%81%E6%83%85%E5%A0%B1%26lt%3Bbr%26gt%3B%E3%83%A2%E3%83%87%E3%83%AB%22%20style%3D%22ellipse%3Bshape%3DumlEntity%3BwhiteSpace%3Dwrap%3Bhtml%3D1%3BfillColor%3D%23d5e8d4%3BstrokeColor%3D%2382b366%3B%22%20vertex%3D%221%22%20parent%3D%221%22%3E%3CmxGeometry%20x%3D%22727%22%20y%3D%22314%22%20width%3D%2280%22%20height%3D%2280%22%20as%3D%22geometry%22%2F%3E%3C%2FmxCell%3E%3CmxCell%20id%3D%225%22%20value%3D%22%E5%BA%97%E8%88%97%E6%83%85%E5%A0%B1%26lt%3Bbr%26gt%3B%E3%83%A2%E3%83%87%E3%83%AB%22%20style%3D%22ellipse%3Bshape%3DumlEntity%3BwhiteSpace%3Dwrap%3Bhtml%3D1%3BfillColor%3D%23d5e8d4%3BstrokeColor%3D%2382b366%3B%22%20vertex%3D%221%22%20parent%3D%221%22%3E%3CmxGeometry%20x%3D%22727%22%20y%3D%22221%22%20width%3D%2280%22%20height%3D%2280%22%20as%3D%22geometry%22%2F%3E%3C%2FmxCell%3E%3CmxCell%20id%3D%226%22%20value%3D%22%E5%BE%93%E6%A5%AD%E5%93%A1%E6%83%85%E5%A0%B1%26lt%3Bbr%26gt%3B%E3%83%A2%E3%83%87%E3%83%AB%22%20style%3D%22ellipse%3Bshape%3DumlEntity%3BwhiteSpace%3Dwrap%3Bhtml%3D1%3BfillColor%3D%23d5e8d4%3BstrokeColor%3D%2382b366%3B%22%20vertex%3D%221%22%20parent%3D%221%22%3E%3CmxGeometry%20x%3D%22727%22%20y%3D%22128%22%20width%3D%2280%22%20height%3D%2280%22%20as%3D%22geometry%22%2F%3E%3C%2FmxCell%3E%3CmxCell%20id%3D%227%22%20value%3D%22%22%20style%3D%22endArrow%3Dclassic%3Bhtml%3D1%3Brounded%3D0%3BstartArrow%3Dclassic%3BstartFill%3D1%3B%22%20edge%3D%221%22%20parent%3D%221%22%3E%3CmxGeometry%20width%3D%2250%22%20height%3D%2250%22%20relative%3D%221%22%20as%3D%22geometry%22%3E%3CmxPoint%20x%3D%22530%22%20y%3D%22157%22%20as%3D%22sourcePoint%22%2F%3E%3CmxPoint%20x%3D%22714%22%20y%3D%22170%22%20as%3D%22targetPoint%22%2F%3E%3C%2FmxGeometry%3E%3C%2FmxCell%3E%3CmxCell%20id%3D%228%22%20value%3D%22%22%20style%3D%22endArrow%3Dclassic%3Bhtml%3D1%3Brounded%3D0%3BstartArrow%3Dclassic%3BstartFill%3D1%3B%22%20edge%3D%221%22%20parent%3D%221%22%3E%3CmxGeometry%20width%3D%2250%22%20height%3D%2250%22%20relative%3D%221%22%20as%3D%22geometry%22%3E%3CmxPoint%20x%3D%22526%22%20y%3D%22184%22%20as%3D%22sourcePoint%22%2F%3E%3CmxPoint%20x%3D%22718%22%20y%3D%22346%22%20as%3D%22targetPoint%22%2F%3E%3C%2FmxGeometry%3E%3C%2FmxCell%3E%3CmxCell%20id%3D%229%22%20value%3D%22%22%20style%3D%22endArrow%3Dclassic%3Bhtml%3D1%3Brounded%3D0%3BstartArrow%3Dclassic%3BstartFill%3D1%3B%22%20edge%3D%221%22%20parent%3D%221%22%3E%3CmxGeometry%20width%3D%2250%22%20height%3D%2250%22%20relative%3D%221%22%20as%3D%22geometry%22%3E%3CmxPoint%20x%3D%22518%22%20y%3D%22197%22%20as%3D%22sourcePoint%22%2F%3E%3CmxPoint%20x%3D%22717%22%20y%3D%22447%22%20as%3D%22targetPoint%22%2F%3E%3C%2FmxGeometry%3E%3C%2FmxCell%3E%3C%2Froot%3E%3C%2FmxGraphModel%3E&lt;/span&gt;" style="ellipse;shape=umlEntity;whiteSpace=wrap;html=1;fillColor=#d5e8d4;strokeColor=#82b366;" parent="Noq5ilU5FU8ZEYIdX7iq-1" vertex="1">
                    <mxGeometry x="720" y="200" width="80" height="80" as="geometry"/>
                </mxCell>
                <mxCell id="pjxCZVeYTB7br9TRvnxd-1" value="" style="endArrow=classic;html=1;rounded=0;startArrow=classic;startFill=1;" parent="Noq5ilU5FU8ZEYIdX7iq-1" edge="1">
                    <mxGeometry width="50" height="50" relative="1" as="geometry">
                        <mxPoint x="520" y="160" as="sourcePoint"/>
                        <mxPoint x="710" y="240" as="targetPoint"/>
                    </mxGeometry>
                </mxCell>
                <mxCell id="pjxCZVeYTB7br9TRvnxd-2" value="GPUベンチマークモデル&lt;span style=&quot;color: rgba(0 , 0 , 0 , 0) ; font-family: monospace ; font-size: 0px&quot;&gt;%3CmxGraphModel%3E%3Croot%3E%3CmxCell%20id%3D%220%22%2F%3E%3CmxCell%20id%3D%221%22%20parent%3D%220%22%2F%3E%3CmxCell%20id%3D%222%22%20value%3D%22%E5%A3%B2%E4%B8%8A%E6%83%85%E5%A0%B1%26lt%3Bbr%26gt%3B%E3%83%A2%E3%83%87%E3%83%AB%22%20style%3D%22ellipse%3Bshape%3DumlEntity%3BwhiteSpace%3Dwrap%3Bhtml%3D1%3BfillColor%3D%23d5e8d4%3BstrokeColor%3D%2382b366%3B%22%20vertex%3D%221%22%20parent%3D%221%22%3E%3CmxGeometry%20x%3D%22727%22%20y%3D%22407%22%20width%3D%2280%22%20height%3D%2280%22%20as%3D%22geometry%22%2F%3E%3C%2FmxCell%3E%3CmxCell%20id%3D%223%22%20value%3D%22%22%20style%3D%22endArrow%3Dclassic%3Bhtml%3D1%3Brounded%3D0%3BstartArrow%3Dclassic%3BstartFill%3D1%3B%22%20edge%3D%221%22%20parent%3D%221%22%3E%3CmxGeometry%20width%3D%2250%22%20height%3D%2250%22%20relative%3D%221%22%20as%3D%22geometry%22%3E%3CmxPoint%20x%3D%22534%22%20y%3D%22172%22%20as%3D%22sourcePoint%22%2F%3E%3CmxPoint%20x%3D%22717%22%20y%3D%22261%22%20as%3D%22targetPoint%22%2F%3E%3C%2FmxGeometry%3E%3C%2FmxCell%3E%3CmxCell%20id%3D%224%22%20value%3D%22%E5%95%86%E5%93%81%E6%83%85%E5%A0%B1%26lt%3Bbr%26gt%3B%E3%83%A2%E3%83%87%E3%83%AB%22%20style%3D%22ellipse%3Bshape%3DumlEntity%3BwhiteSpace%3Dwrap%3Bhtml%3D1%3BfillColor%3D%23d5e8d4%3BstrokeColor%3D%2382b366%3B%22%20vertex%3D%221%22%20parent%3D%221%22%3E%3CmxGeometry%20x%3D%22727%22%20y%3D%22314%22%20width%3D%2280%22%20height%3D%2280%22%20as%3D%22geometry%22%2F%3E%3C%2FmxCell%3E%3CmxCell%20id%3D%225%22%20value%3D%22%E5%BA%97%E8%88%97%E6%83%85%E5%A0%B1%26lt%3Bbr%26gt%3B%E3%83%A2%E3%83%87%E3%83%AB%22%20style%3D%22ellipse%3Bshape%3DumlEntity%3BwhiteSpace%3Dwrap%3Bhtml%3D1%3BfillColor%3D%23d5e8d4%3BstrokeColor%3D%2382b366%3B%22%20vertex%3D%221%22%20parent%3D%221%22%3E%3CmxGeometry%20x%3D%22727%22%20y%3D%22221%22%20width%3D%2280%22%20height%3D%2280%22%20as%3D%22geometry%22%2F%3E%3C%2FmxCell%3E%3CmxCell%20id%3D%226%22%20value%3D%22%E5%BE%93%E6%A5%AD%E5%93%A1%E6%83%85%E5%A0%B1%26lt%3Bbr%26gt%3B%E3%83%A2%E3%83%87%E3%83%AB%22%20style%3D%22ellipse%3Bshape%3DumlEntity%3BwhiteSpace%3Dwrap%3Bhtml%3D1%3BfillColor%3D%23d5e8d4%3BstrokeColor%3D%2382b366%3B%22%20vertex%3D%221%22%20parent%3D%221%22%3E%3CmxGeometry%20x%3D%22727%22%20y%3D%22128%22%20width%3D%2280%22%20height%3D%2280%22%20as%3D%22geometry%22%2F%3E%3C%2FmxCell%3E%3CmxCell%20id%3D%227%22%20value%3D%22%22%20style%3D%22endArrow%3Dclassic%3Bhtml%3D1%3Brounded%3D0%3BstartArrow%3Dclassic%3BstartFill%3D1%3B%22%20edge%3D%221%22%20parent%3D%221%22%3E%3CmxGeometry%20width%3D%2250%22%20height%3D%2250%22%20relative%3D%221%22%20as%3D%22geometry%22%3E%3CmxPoint%20x%3D%22530%22%20y%3D%22157%22%20as%3D%22sourcePoint%22%2F%3E%3CmxPoint%20x%3D%22714%22%20y%3D%22170%22%20as%3D%22targetPoint%22%2F%3E%3C%2FmxGeometry%3E%3C%2FmxCell%3E%3CmxCell%20id%3D%228%22%20value%3D%22%22%20style%3D%22endArrow%3Dclassic%3Bhtml%3D1%3Brounded%3D0%3BstartArrow%3Dclassic%3BstartFill%3D1%3B%22%20edge%3D%221%22%20parent%3D%221%22%3E%3CmxGeometry%20width%3D%2250%22%20height%3D%2250%22%20relative%3D%221%22%20as%3D%22geometry%22%3E%3CmxPoint%20x%3D%22526%22%20y%3D%22184%22%20as%3D%22sourcePoint%22%2F%3E%3CmxPoint%20x%3D%22718%22%20y%3D%22346%22%20as%3D%22targetPoint%22%2F%3E%3C%2FmxGeometry%3E%3C%2FmxCell%3E%3CmxCell%20id%3D%229%22%20value%3D%22%22%20style%3D%22endArrow%3Dclassic%3Bhtml%3D1%3Brounded%3D0%3BstartArrow%3Dclassic%3BstartFill%3D1%3B%22%20edge%3D%221%22%20parent%3D%221%22%3E%3CmxGeometry%20width%3D%2250%22%20height%3D%2250%22%20relative%3D%221%22%20as%3D%22geometry%22%3E%3CmxPoint%20x%3D%22518%22%20y%3D%22197%22%20as%3D%22sourcePoint%22%2F%3E%3CmxPoint%20x%3D%22717%22%20y%3D%22447%22%20as%3D%22targetPoint%22%2F%3E%3C%2FmxGeometry%3E%3C%2FmxCell%3E%3C%2Froot%3E%3C%2FmxGraphModel%3E&lt;/span&gt;" style="ellipse;shape=umlEntity;whiteSpace=wrap;html=1;fillColor=#d5e8d4;strokeColor=#82b366;" parent="Noq5ilU5FU8ZEYIdX7iq-1" vertex="1">
                    <mxGeometry x="720" y="104" width="80" height="80" as="geometry"/>
                </mxCell>
                <mxCell id="pjxCZVeYTB7br9TRvnxd-3" value="" style="endArrow=classic;html=1;rounded=0;startArrow=classic;startFill=1;" parent="Noq5ilU5FU8ZEYIdX7iq-1" edge="1">
                    <mxGeometry width="50" height="50" relative="1" as="geometry">
                        <mxPoint x="530" y="153" as="sourcePoint"/>
                        <mxPoint x="709" y="143" as="targetPoint"/>
                    </mxGeometry>
                </mxCell>
            </root>
        </mxGraphModel>
    </diagram>
    <diagram id="8uVS_xQF8xlp2i3T6R5J" name="*ベンチマークマスタ管理_編集">
        <mxGraphModel dx="1214" dy="339" grid="0" gridSize="10" guides="1" tooltips="1" connect="1" arrows="1" fold="1" page="0" pageScale="1" pageWidth="827" pageHeight="1169" math="0" shadow="0">
            <root>
                <mxCell id="Vqz1aeMNSxQNZWVuaeiP-0"/>
                <mxCell id="Vqz1aeMNSxQNZWVuaeiP-1" parent="Vqz1aeMNSxQNZWVuaeiP-0"/>
                <mxCell id="nSiE_fP1zriIZRK4lQzF-1" value="ログイン済&lt;br&gt;ホーム画面" style="shape=umlBoundary;whiteSpace=wrap;html=1;fillColor=#dae8fc;strokeColor=#6c8ebf;" parent="Vqz1aeMNSxQNZWVuaeiP-1" vertex="1">
                    <mxGeometry x="120" y="120" width="100" height="80" as="geometry"/>
                </mxCell>
                <mxCell id="nSiE_fP1zriIZRK4lQzF-2" value="詳細画面" style="shape=umlBoundary;whiteSpace=wrap;html=1;fillColor=#dae8fc;strokeColor=#6c8ebf;" parent="Vqz1aeMNSxQNZWVuaeiP-1" vertex="1">
                    <mxGeometry x="120" y="440" width="100" height="80" as="geometry"/>
                </mxCell>
                <mxCell id="nSiE_fP1zriIZRK4lQzF-7" value="ベンチマーク情報" style="ellipse;shape=umlEntity;whiteSpace=wrap;html=1;fillColor=#d5e8d4;strokeColor=#82b366;" parent="Vqz1aeMNSxQNZWVuaeiP-1" vertex="1">
                    <mxGeometry x="720" y="200" width="80" height="80" as="geometry"/>
                </mxCell>
                <mxCell id="nSiE_fP1zriIZRK4lQzF-8" value="表示する" style="ellipse;shape=umlControl;whiteSpace=wrap;html=1;fillColor=#f8cecc;strokeColor=#b85450;" parent="Vqz1aeMNSxQNZWVuaeiP-1" vertex="1">
                    <mxGeometry x="440" y="280" width="70" height="80" as="geometry"/>
                </mxCell>
                <mxCell id="nSiE_fP1zriIZRK4lQzF-9" value="" style="endArrow=classic;html=1;rounded=0;" parent="Vqz1aeMNSxQNZWVuaeiP-1" edge="1">
                    <mxGeometry width="50" height="50" relative="1" as="geometry">
                        <mxPoint x="240" y="159.17000000000007" as="sourcePoint"/>
                        <mxPoint x="430" y="159.0000000000001" as="targetPoint"/>
                    </mxGeometry>
                </mxCell>
                <mxCell id="nSiE_fP1zriIZRK4lQzF-11" value="" style="endArrow=classic;html=1;rounded=0;startArrow=classic;startFill=1;" parent="Vqz1aeMNSxQNZWVuaeiP-1" edge="1">
                    <mxGeometry width="50" height="50" relative="1" as="geometry">
                        <mxPoint x="520" y="159.9999999999999" as="sourcePoint"/>
                        <mxPoint x="710.0000000000005" y="239.9999999999999" as="targetPoint"/>
                    </mxGeometry>
                </mxCell>
                <mxCell id="nSiE_fP1zriIZRK4lQzF-12" value="" style="endArrow=none;html=1;rounded=0;jumpStyle=none;startArrow=classic;startFill=1;endFill=0;" parent="Vqz1aeMNSxQNZWVuaeiP-1" edge="1">
                    <mxGeometry width="50" height="50" relative="1" as="geometry">
                        <mxPoint x="430" y="320" as="sourcePoint"/>
                        <mxPoint x="240" y="320" as="targetPoint"/>
                    </mxGeometry>
                </mxCell>
                <mxCell id="nSiE_fP1zriIZRK4lQzF-13" value="" style="endArrow=classic;html=1;rounded=0;" parent="Vqz1aeMNSxQNZWVuaeiP-1" edge="1">
                    <mxGeometry width="50" height="50" relative="1" as="geometry">
                        <mxPoint x="430" y="169.9999999999999" as="sourcePoint"/>
                        <mxPoint x="240" y="310" as="targetPoint"/>
                    </mxGeometry>
                </mxCell>
                <mxCell id="nSiE_fP1zriIZRK4lQzF-14" value="" style="endArrow=classic;html=1;rounded=0;jumpStyle=none;startArrow=classic;startFill=1;endFill=1;" parent="Vqz1aeMNSxQNZWVuaeiP-1" edge="1">
                    <mxGeometry width="50" height="50" relative="1" as="geometry">
                        <mxPoint x="240" y="480" as="sourcePoint"/>
                        <mxPoint x="430" y="330" as="targetPoint"/>
                    </mxGeometry>
                </mxCell>
                <mxCell id="nSiE_fP1zriIZRK4lQzF-15" value="ベンチマーク&lt;br&gt;情報一覧画面" style="shape=umlBoundary;whiteSpace=wrap;html=1;fillColor=#dae8fc;strokeColor=#6c8ebf;" parent="Vqz1aeMNSxQNZWVuaeiP-1" vertex="1">
                    <mxGeometry x="120" y="280" width="100" height="80" as="geometry"/>
                </mxCell>
                <mxCell id="QwaG9jZXCIXz2D_TahUL-0" value="ベンチマーク&lt;br&gt;マスタ情報&lt;br&gt;を取得する" style="ellipse;shape=umlControl;whiteSpace=wrap;html=1;fillColor=#f8cecc;strokeColor=#b85450;" parent="Vqz1aeMNSxQNZWVuaeiP-1" vertex="1">
                    <mxGeometry x="440" y="110" width="80" height="90" as="geometry"/>
                </mxCell>
                <mxCell id="z9AlBpr7LHTCgQyZx6nX-1" value="編集画面" style="shape=umlBoundary;whiteSpace=wrap;html=1;fillColor=#dae8fc;strokeColor=#6c8ebf;" parent="Vqz1aeMNSxQNZWVuaeiP-1" vertex="1">
                    <mxGeometry x="120" y="600" width="100" height="80" as="geometry"/>
                </mxCell>
                <mxCell id="z9AlBpr7LHTCgQyZx6nX-2" value="" style="endArrow=none;html=1;rounded=0;jumpStyle=none;startArrow=classic;startFill=1;endFill=0;" parent="Vqz1aeMNSxQNZWVuaeiP-1" edge="1">
                    <mxGeometry width="50" height="50" relative="1" as="geometry">
                        <mxPoint x="240" y="630" as="sourcePoint"/>
                        <mxPoint x="430" y="340" as="targetPoint"/>
                    </mxGeometry>
                </mxCell>
                <mxCell id="z9AlBpr7LHTCgQyZx6nX-3" value="" style="endArrow=classic;html=1;rounded=0;" parent="Vqz1aeMNSxQNZWVuaeiP-1" edge="1">
                    <mxGeometry width="50" height="50" relative="1" as="geometry">
                        <mxPoint x="-30" y="320" as="sourcePoint"/>
                        <mxPoint x="110" y="640" as="targetPoint"/>
                    </mxGeometry>
                </mxCell>
                <mxCell id="GpFUuZaesWNY-ZoGWfIf-2" value="ベンチマーク情報を入力" style="edgeLabel;html=1;align=center;verticalAlign=middle;resizable=0;points=[];" parent="z9AlBpr7LHTCgQyZx6nX-3" vertex="1" connectable="0">
                    <mxGeometry x="0.2655" y="2" relative="1" as="geometry">
                        <mxPoint as="offset"/>
                    </mxGeometry>
                </mxCell>
                <mxCell id="z9AlBpr7LHTCgQyZx6nX-4" value="入力データを検証する" style="ellipse;shape=umlControl;whiteSpace=wrap;html=1;fillColor=#f8cecc;strokeColor=#b85450;" parent="Vqz1aeMNSxQNZWVuaeiP-1" vertex="1">
                    <mxGeometry x="440" y="600" width="70" height="80" as="geometry"/>
                </mxCell>
                <mxCell id="z9AlBpr7LHTCgQyZx6nX-5" value="更新する" style="ellipse;shape=umlControl;whiteSpace=wrap;html=1;fillColor=#f8cecc;strokeColor=#b85450;" parent="Vqz1aeMNSxQNZWVuaeiP-1" vertex="1">
                    <mxGeometry x="440" y="440" width="70" height="80" as="geometry"/>
                </mxCell>
                <mxCell id="z9AlBpr7LHTCgQyZx6nX-6" value="" style="endArrow=classic;html=1;rounded=0;jumpStyle=none;startArrow=classic;startFill=1;endFill=1;" parent="Vqz1aeMNSxQNZWVuaeiP-1" edge="1">
                    <mxGeometry width="50" height="50" relative="1" as="geometry">
                        <mxPoint x="240" y="640" as="sourcePoint"/>
                        <mxPoint x="430" y="640" as="targetPoint"/>
                    </mxGeometry>
                </mxCell>
                <mxCell id="z9AlBpr7LHTCgQyZx6nX-7" value="" style="endArrow=none;html=1;rounded=0;jumpStyle=none;startArrow=classic;startFill=1;endFill=0;" parent="Vqz1aeMNSxQNZWVuaeiP-1" edge="1">
                    <mxGeometry width="50" height="50" relative="1" as="geometry">
                        <mxPoint x="475" y="530" as="sourcePoint"/>
                        <mxPoint x="475" y="590" as="targetPoint"/>
                    </mxGeometry>
                </mxCell>
                <mxCell id="z9AlBpr7LHTCgQyZx6nX-8" value="" style="endArrow=classic;html=1;rounded=0;jumpStyle=none;startArrow=classic;startFill=1;endFill=1;" parent="Vqz1aeMNSxQNZWVuaeiP-1" edge="1">
                    <mxGeometry width="50" height="50" relative="1" as="geometry">
                        <mxPoint x="710" y="250" as="sourcePoint"/>
                        <mxPoint x="520" y="480" as="targetPoint"/>
                    </mxGeometry>
                </mxCell>
                <mxCell id="GpFUuZaesWNY-ZoGWfIf-3" value="ベンチマーク情報&lt;br&gt;を更新" style="edgeLabel;html=1;align=center;verticalAlign=middle;resizable=0;points=[];" parent="z9AlBpr7LHTCgQyZx6nX-8" vertex="1" connectable="0">
                    <mxGeometry x="-0.2157" y="4" relative="1" as="geometry">
                        <mxPoint x="-1" as="offset"/>
                    </mxGeometry>
                </mxCell>
                <mxCell id="z9AlBpr7LHTCgQyZx6nX-9" value="" style="endArrow=classic;html=1;rounded=0;jumpStyle=arc;" parent="Vqz1aeMNSxQNZWVuaeiP-1" edge="1">
                    <mxGeometry width="50" height="50" relative="1" as="geometry">
                        <mxPoint x="430" y="180" as="sourcePoint"/>
                        <mxPoint x="240" y="470" as="targetPoint"/>
                    </mxGeometry>
                </mxCell>
                <mxCell id="6e0Y1z3ff_5MrrpyJy39-0" value="ベンチマークマスタ_編集" style="rounded=0;whiteSpace=wrap;html=1;fillColor=#ffe6cc;strokeColor=#d79b00;fontStyle=1;fontSize=18;" parent="Vqz1aeMNSxQNZWVuaeiP-1" vertex="1">
                    <mxGeometry x="-160" y="60" width="250" height="60" as="geometry"/>
                </mxCell>
                <mxCell id="o6zD_Jn4FmB_m7PJLo_p-0" value="管理者&lt;br&gt;正規社員" style="shape=umlActor;verticalLabelPosition=bottom;verticalAlign=top;html=1;" parent="Vqz1aeMNSxQNZWVuaeiP-1" vertex="1">
                    <mxGeometry x="-70" y="280" width="30" height="60" as="geometry"/>
                </mxCell>
                <mxCell id="o6zD_Jn4FmB_m7PJLo_p-1" value="" style="endArrow=classic;html=1;rounded=0;" parent="Vqz1aeMNSxQNZWVuaeiP-1" edge="1">
                    <mxGeometry width="50" height="50" relative="1" as="geometry">
                        <mxPoint x="-30" y="320" as="sourcePoint"/>
                        <mxPoint x="110" y="160" as="targetPoint"/>
                    </mxGeometry>
                </mxCell>
                <mxCell id="o6zD_Jn4FmB_m7PJLo_p-2" value="「ベンチマークマスタ情報」&lt;br&gt;を押下" style="edgeLabel;html=1;align=center;verticalAlign=middle;resizable=0;points=[];" parent="o6zD_Jn4FmB_m7PJLo_p-1" vertex="1" connectable="0">
                    <mxGeometry x="0.2118" y="-2" relative="1" as="geometry">
                        <mxPoint x="-9" y="10" as="offset"/>
                    </mxGeometry>
                </mxCell>
                <mxCell id="o6zD_Jn4FmB_m7PJLo_p-3" value="" style="endArrow=classic;html=1;rounded=0;" parent="Vqz1aeMNSxQNZWVuaeiP-1" edge="1">
                    <mxGeometry width="50" height="50" relative="1" as="geometry">
                        <mxPoint x="-30" y="320" as="sourcePoint"/>
                        <mxPoint x="110" y="480" as="targetPoint"/>
                    </mxGeometry>
                </mxCell>
                <mxCell id="GpFUuZaesWNY-ZoGWfIf-1" value="「編集」を押下" style="edgeLabel;html=1;align=center;verticalAlign=middle;resizable=0;points=[];" parent="o6zD_Jn4FmB_m7PJLo_p-3" vertex="1" connectable="0">
                    <mxGeometry x="0.1529" y="1" relative="1" as="geometry">
                        <mxPoint x="1" as="offset"/>
                    </mxGeometry>
                </mxCell>
                <mxCell id="o6zD_Jn4FmB_m7PJLo_p-5" value="" style="endArrow=classic;html=1;rounded=0;" parent="Vqz1aeMNSxQNZWVuaeiP-1" edge="1">
                    <mxGeometry width="50" height="50" relative="1" as="geometry">
                        <mxPoint x="-30" y="320" as="sourcePoint"/>
                        <mxPoint x="110" y="320" as="targetPoint"/>
                    </mxGeometry>
                </mxCell>
                <mxCell id="GpFUuZaesWNY-ZoGWfIf-0" value="ベンチマーク情報&lt;br&gt;を選択" style="edgeLabel;html=1;align=center;verticalAlign=middle;resizable=0;points=[];" parent="o6zD_Jn4FmB_m7PJLo_p-5" vertex="1" connectable="0">
                    <mxGeometry x="0.5476" y="-1" relative="1" as="geometry">
                        <mxPoint x="-38" y="-1" as="offset"/>
                    </mxGeometry>
                </mxCell>
                <mxCell id="1Og1dZIsNvZaiem4P9cS-0" value="" style="curved=1;endArrow=classic;html=1;rounded=0;" parent="Vqz1aeMNSxQNZWVuaeiP-1" edge="1">
                    <mxGeometry width="50" height="50" relative="1" as="geometry">
                        <mxPoint x="520" y="460" as="sourcePoint"/>
                        <mxPoint x="520" y="170" as="targetPoint"/>
                        <Array as="points">
                            <mxPoint x="600" y="250"/>
                        </Array>
                    </mxGeometry>
                </mxCell>
                <mxCell id="m-4PAxs1fMtaU4QHKDKx-0" value="CPUベンチマークモデル&lt;span style=&quot;color: rgba(0 , 0 , 0 , 0) ; font-family: monospace ; font-size: 0px&quot;&gt;%3CmxGraphModel%3E%3Croot%3E%3CmxCell%20id%3D%220%22%2F%3E%3CmxCell%20id%3D%221%22%20parent%3D%220%22%2F%3E%3CmxCell%20id%3D%222%22%20value%3D%22%E5%A3%B2%E4%B8%8A%E6%83%85%E5%A0%B1%26lt%3Bbr%26gt%3B%E3%83%A2%E3%83%87%E3%83%AB%22%20style%3D%22ellipse%3Bshape%3DumlEntity%3BwhiteSpace%3Dwrap%3Bhtml%3D1%3BfillColor%3D%23d5e8d4%3BstrokeColor%3D%2382b366%3B%22%20vertex%3D%221%22%20parent%3D%221%22%3E%3CmxGeometry%20x%3D%22727%22%20y%3D%22407%22%20width%3D%2280%22%20height%3D%2280%22%20as%3D%22geometry%22%2F%3E%3C%2FmxCell%3E%3CmxCell%20id%3D%223%22%20value%3D%22%22%20style%3D%22endArrow%3Dclassic%3Bhtml%3D1%3Brounded%3D0%3BstartArrow%3Dclassic%3BstartFill%3D1%3B%22%20edge%3D%221%22%20parent%3D%221%22%3E%3CmxGeometry%20width%3D%2250%22%20height%3D%2250%22%20relative%3D%221%22%20as%3D%22geometry%22%3E%3CmxPoint%20x%3D%22534%22%20y%3D%22172%22%20as%3D%22sourcePoint%22%2F%3E%3CmxPoint%20x%3D%22717%22%20y%3D%22261%22%20as%3D%22targetPoint%22%2F%3E%3C%2FmxGeometry%3E%3C%2FmxCell%3E%3CmxCell%20id%3D%224%22%20value%3D%22%E5%95%86%E5%93%81%E6%83%85%E5%A0%B1%26lt%3Bbr%26gt%3B%E3%83%A2%E3%83%87%E3%83%AB%22%20style%3D%22ellipse%3Bshape%3DumlEntity%3BwhiteSpace%3Dwrap%3Bhtml%3D1%3BfillColor%3D%23d5e8d4%3BstrokeColor%3D%2382b366%3B%22%20vertex%3D%221%22%20parent%3D%221%22%3E%3CmxGeometry%20x%3D%22727%22%20y%3D%22314%22%20width%3D%2280%22%20height%3D%2280%22%20as%3D%22geometry%22%2F%3E%3C%2FmxCell%3E%3CmxCell%20id%3D%225%22%20value%3D%22%E5%BA%97%E8%88%97%E6%83%85%E5%A0%B1%26lt%3Bbr%26gt%3B%E3%83%A2%E3%83%87%E3%83%AB%22%20style%3D%22ellipse%3Bshape%3DumlEntity%3BwhiteSpace%3Dwrap%3Bhtml%3D1%3BfillColor%3D%23d5e8d4%3BstrokeColor%3D%2382b366%3B%22%20vertex%3D%221%22%20parent%3D%221%22%3E%3CmxGeometry%20x%3D%22727%22%20y%3D%22221%22%20width%3D%2280%22%20height%3D%2280%22%20as%3D%22geometry%22%2F%3E%3C%2FmxCell%3E%3CmxCell%20id%3D%226%22%20value%3D%22%E5%BE%93%E6%A5%AD%E5%93%A1%E6%83%85%E5%A0%B1%26lt%3Bbr%26gt%3B%E3%83%A2%E3%83%87%E3%83%AB%22%20style%3D%22ellipse%3Bshape%3DumlEntity%3BwhiteSpace%3Dwrap%3Bhtml%3D1%3BfillColor%3D%23d5e8d4%3BstrokeColor%3D%2382b366%3B%22%20vertex%3D%221%22%20parent%3D%221%22%3E%3CmxGeometry%20x%3D%22727%22%20y%3D%22128%22%20width%3D%2280%22%20height%3D%2280%22%20as%3D%22geometry%22%2F%3E%3C%2FmxCell%3E%3CmxCell%20id%3D%227%22%20value%3D%22%22%20style%3D%22endArrow%3Dclassic%3Bhtml%3D1%3Brounded%3D0%3BstartArrow%3Dclassic%3BstartFill%3D1%3B%22%20edge%3D%221%22%20parent%3D%221%22%3E%3CmxGeometry%20width%3D%2250%22%20height%3D%2250%22%20relative%3D%221%22%20as%3D%22geometry%22%3E%3CmxPoint%20x%3D%22530%22%20y%3D%22157%22%20as%3D%22sourcePoint%22%2F%3E%3CmxPoint%20x%3D%22714%22%20y%3D%22170%22%20as%3D%22targetPoint%22%2F%3E%3C%2FmxGeometry%3E%3C%2FmxCell%3E%3CmxCell%20id%3D%228%22%20value%3D%22%22%20style%3D%22endArrow%3Dclassic%3Bhtml%3D1%3Brounded%3D0%3BstartArrow%3Dclassic%3BstartFill%3D1%3B%22%20edge%3D%221%22%20parent%3D%221%22%3E%3CmxGeometry%20width%3D%2250%22%20height%3D%2250%22%20relative%3D%221%22%20as%3D%22geometry%22%3E%3CmxPoint%20x%3D%22526%22%20y%3D%22184%22%20as%3D%22sourcePoint%22%2F%3E%3CmxPoint%20x%3D%22718%22%20y%3D%22346%22%20as%3D%22targetPoint%22%2F%3E%3C%2FmxGeometry%3E%3C%2FmxCell%3E%3CmxCell%20id%3D%229%22%20value%3D%22%22%20style%3D%22endArrow%3Dclassic%3Bhtml%3D1%3Brounded%3D0%3BstartArrow%3Dclassic%3BstartFill%3D1%3B%22%20edge%3D%221%22%20parent%3D%221%22%3E%3CmxGeometry%20width%3D%2250%22%20height%3D%2250%22%20relative%3D%221%22%20as%3D%22geometry%22%3E%3CmxPoint%20x%3D%22518%22%20y%3D%22197%22%20as%3D%22sourcePoint%22%2F%3E%3CmxPoint%20x%3D%22717%22%20y%3D%22447%22%20as%3D%22targetPoint%22%2F%3E%3C%2FmxGeometry%3E%3C%2FmxCell%3E%3C%2Froot%3E%3C%2FmxGraphModel%3E&lt;/span&gt;" style="ellipse;shape=umlEntity;whiteSpace=wrap;html=1;fillColor=#d5e8d4;strokeColor=#82b366;" parent="Vqz1aeMNSxQNZWVuaeiP-1" vertex="1">
                    <mxGeometry x="720" y="200" width="80" height="80" as="geometry"/>
                </mxCell>
                <mxCell id="m-4PAxs1fMtaU4QHKDKx-1" value="" style="endArrow=classic;html=1;rounded=0;startArrow=classic;startFill=1;" parent="Vqz1aeMNSxQNZWVuaeiP-1" edge="1">
                    <mxGeometry width="50" height="50" relative="1" as="geometry">
                        <mxPoint x="520" y="160" as="sourcePoint"/>
                        <mxPoint x="710" y="240" as="targetPoint"/>
                    </mxGeometry>
                </mxCell>
                <mxCell id="m-4PAxs1fMtaU4QHKDKx-2" value="GPUベンチマークモデル&lt;span style=&quot;color: rgba(0 , 0 , 0 , 0) ; font-family: monospace ; font-size: 0px&quot;&gt;%3CmxGraphModel%3E%3Croot%3E%3CmxCell%20id%3D%220%22%2F%3E%3CmxCell%20id%3D%221%22%20parent%3D%220%22%2F%3E%3CmxCell%20id%3D%222%22%20value%3D%22%E5%A3%B2%E4%B8%8A%E6%83%85%E5%A0%B1%26lt%3Bbr%26gt%3B%E3%83%A2%E3%83%87%E3%83%AB%22%20style%3D%22ellipse%3Bshape%3DumlEntity%3BwhiteSpace%3Dwrap%3Bhtml%3D1%3BfillColor%3D%23d5e8d4%3BstrokeColor%3D%2382b366%3B%22%20vertex%3D%221%22%20parent%3D%221%22%3E%3CmxGeometry%20x%3D%22727%22%20y%3D%22407%22%20width%3D%2280%22%20height%3D%2280%22%20as%3D%22geometry%22%2F%3E%3C%2FmxCell%3E%3CmxCell%20id%3D%223%22%20value%3D%22%22%20style%3D%22endArrow%3Dclassic%3Bhtml%3D1%3Brounded%3D0%3BstartArrow%3Dclassic%3BstartFill%3D1%3B%22%20edge%3D%221%22%20parent%3D%221%22%3E%3CmxGeometry%20width%3D%2250%22%20height%3D%2250%22%20relative%3D%221%22%20as%3D%22geometry%22%3E%3CmxPoint%20x%3D%22534%22%20y%3D%22172%22%20as%3D%22sourcePoint%22%2F%3E%3CmxPoint%20x%3D%22717%22%20y%3D%22261%22%20as%3D%22targetPoint%22%2F%3E%3C%2FmxGeometry%3E%3C%2FmxCell%3E%3CmxCell%20id%3D%224%22%20value%3D%22%E5%95%86%E5%93%81%E6%83%85%E5%A0%B1%26lt%3Bbr%26gt%3B%E3%83%A2%E3%83%87%E3%83%AB%22%20style%3D%22ellipse%3Bshape%3DumlEntity%3BwhiteSpace%3Dwrap%3Bhtml%3D1%3BfillColor%3D%23d5e8d4%3BstrokeColor%3D%2382b366%3B%22%20vertex%3D%221%22%20parent%3D%221%22%3E%3CmxGeometry%20x%3D%22727%22%20y%3D%22314%22%20width%3D%2280%22%20height%3D%2280%22%20as%3D%22geometry%22%2F%3E%3C%2FmxCell%3E%3CmxCell%20id%3D%225%22%20value%3D%22%E5%BA%97%E8%88%97%E6%83%85%E5%A0%B1%26lt%3Bbr%26gt%3B%E3%83%A2%E3%83%87%E3%83%AB%22%20style%3D%22ellipse%3Bshape%3DumlEntity%3BwhiteSpace%3Dwrap%3Bhtml%3D1%3BfillColor%3D%23d5e8d4%3BstrokeColor%3D%2382b366%3B%22%20vertex%3D%221%22%20parent%3D%221%22%3E%3CmxGeometry%20x%3D%22727%22%20y%3D%22221%22%20width%3D%2280%22%20height%3D%2280%22%20as%3D%22geometry%22%2F%3E%3C%2FmxCell%3E%3CmxCell%20id%3D%226%22%20value%3D%22%E5%BE%93%E6%A5%AD%E5%93%A1%E6%83%85%E5%A0%B1%26lt%3Bbr%26gt%3B%E3%83%A2%E3%83%87%E3%83%AB%22%20style%3D%22ellipse%3Bshape%3DumlEntity%3BwhiteSpace%3Dwrap%3Bhtml%3D1%3BfillColor%3D%23d5e8d4%3BstrokeColor%3D%2382b366%3B%22%20vertex%3D%221%22%20parent%3D%221%22%3E%3CmxGeometry%20x%3D%22727%22%20y%3D%22128%22%20width%3D%2280%22%20height%3D%2280%22%20as%3D%22geometry%22%2F%3E%3C%2FmxCell%3E%3CmxCell%20id%3D%227%22%20value%3D%22%22%20style%3D%22endArrow%3Dclassic%3Bhtml%3D1%3Brounded%3D0%3BstartArrow%3Dclassic%3BstartFill%3D1%3B%22%20edge%3D%221%22%20parent%3D%221%22%3E%3CmxGeometry%20width%3D%2250%22%20height%3D%2250%22%20relative%3D%221%22%20as%3D%22geometry%22%3E%3CmxPoint%20x%3D%22530%22%20y%3D%22157%22%20as%3D%22sourcePoint%22%2F%3E%3CmxPoint%20x%3D%22714%22%20y%3D%22170%22%20as%3D%22targetPoint%22%2F%3E%3C%2FmxGeometry%3E%3C%2FmxCell%3E%3CmxCell%20id%3D%228%22%20value%3D%22%22%20style%3D%22endArrow%3Dclassic%3Bhtml%3D1%3Brounded%3D0%3BstartArrow%3Dclassic%3BstartFill%3D1%3B%22%20edge%3D%221%22%20parent%3D%221%22%3E%3CmxGeometry%20width%3D%2250%22%20height%3D%2250%22%20relative%3D%221%22%20as%3D%22geometry%22%3E%3CmxPoint%20x%3D%22526%22%20y%3D%22184%22%20as%3D%22sourcePoint%22%2F%3E%3CmxPoint%20x%3D%22718%22%20y%3D%22346%22%20as%3D%22targetPoint%22%2F%3E%3C%2FmxGeometry%3E%3C%2FmxCell%3E%3CmxCell%20id%3D%229%22%20value%3D%22%22%20style%3D%22endArrow%3Dclassic%3Bhtml%3D1%3Brounded%3D0%3BstartArrow%3Dclassic%3BstartFill%3D1%3B%22%20edge%3D%221%22%20parent%3D%221%22%3E%3CmxGeometry%20width%3D%2250%22%20height%3D%2250%22%20relative%3D%221%22%20as%3D%22geometry%22%3E%3CmxPoint%20x%3D%22518%22%20y%3D%22197%22%20as%3D%22sourcePoint%22%2F%3E%3CmxPoint%20x%3D%22717%22%20y%3D%22447%22%20as%3D%22targetPoint%22%2F%3E%3C%2FmxGeometry%3E%3C%2FmxCell%3E%3C%2Froot%3E%3C%2FmxGraphModel%3E&lt;/span&gt;" style="ellipse;shape=umlEntity;whiteSpace=wrap;html=1;fillColor=#d5e8d4;strokeColor=#82b366;" parent="Vqz1aeMNSxQNZWVuaeiP-1" vertex="1">
                    <mxGeometry x="720" y="104" width="80" height="80" as="geometry"/>
                </mxCell>
                <mxCell id="m-4PAxs1fMtaU4QHKDKx-3" value="" style="endArrow=classic;html=1;rounded=0;startArrow=classic;startFill=1;" parent="Vqz1aeMNSxQNZWVuaeiP-1" edge="1">
                    <mxGeometry width="50" height="50" relative="1" as="geometry">
                        <mxPoint x="530" y="153" as="sourcePoint"/>
                        <mxPoint x="709" y="143" as="targetPoint"/>
                    </mxGeometry>
                </mxCell>
            </root>
        </mxGraphModel>
    </diagram>
    <diagram id="Ufez5nXvk2XaxpIsFsRu" name="*ベンチマークマスタ管理_削除">
        <mxGraphModel dx="1214" dy="339" grid="0" gridSize="10" guides="1" tooltips="1" connect="1" arrows="1" fold="1" page="0" pageScale="1" pageWidth="827" pageHeight="1169" math="0" shadow="0">
            <root>
                <mxCell id="DMxsckBU2M_JoR_AKvYi-0"/>
                <mxCell id="DMxsckBU2M_JoR_AKvYi-1" parent="DMxsckBU2M_JoR_AKvYi-0"/>
                <mxCell id="auUNiC2Mis4MEqBHwmfJ-1" value="ログイン済&lt;br&gt;ホーム画面" style="shape=umlBoundary;whiteSpace=wrap;html=1;fillColor=#dae8fc;strokeColor=#6c8ebf;" parent="DMxsckBU2M_JoR_AKvYi-1" vertex="1">
                    <mxGeometry x="120" y="120" width="100" height="80" as="geometry"/>
                </mxCell>
                <mxCell id="auUNiC2Mis4MEqBHwmfJ-2" value="詳細画面" style="shape=umlBoundary;whiteSpace=wrap;html=1;fillColor=#dae8fc;strokeColor=#6c8ebf;" parent="DMxsckBU2M_JoR_AKvYi-1" vertex="1">
                    <mxGeometry x="120" y="440" width="100" height="80" as="geometry"/>
                </mxCell>
                <mxCell id="auUNiC2Mis4MEqBHwmfJ-6" value="ベンチマーク情報" style="ellipse;shape=umlEntity;whiteSpace=wrap;html=1;fillColor=#d5e8d4;strokeColor=#82b366;" parent="DMxsckBU2M_JoR_AKvYi-1" vertex="1">
                    <mxGeometry x="720" y="200" width="80" height="80" as="geometry"/>
                </mxCell>
                <mxCell id="auUNiC2Mis4MEqBHwmfJ-7" value="表示する" style="ellipse;shape=umlControl;whiteSpace=wrap;html=1;fillColor=#f8cecc;strokeColor=#b85450;" parent="DMxsckBU2M_JoR_AKvYi-1" vertex="1">
                    <mxGeometry x="440" y="280" width="70" height="80" as="geometry"/>
                </mxCell>
                <mxCell id="auUNiC2Mis4MEqBHwmfJ-8" value="" style="endArrow=classic;html=1;rounded=0;" parent="DMxsckBU2M_JoR_AKvYi-1" edge="1">
                    <mxGeometry width="50" height="50" relative="1" as="geometry">
                        <mxPoint x="240" y="159.17000000000007" as="sourcePoint"/>
                        <mxPoint x="430" y="159" as="targetPoint"/>
                    </mxGeometry>
                </mxCell>
                <mxCell id="auUNiC2Mis4MEqBHwmfJ-10" value="" style="endArrow=classic;html=1;rounded=0;startArrow=classic;startFill=1;" parent="DMxsckBU2M_JoR_AKvYi-1" edge="1">
                    <mxGeometry width="50" height="50" relative="1" as="geometry">
                        <mxPoint x="520" y="160" as="sourcePoint"/>
                        <mxPoint x="710.0000000000005" y="240" as="targetPoint"/>
                    </mxGeometry>
                </mxCell>
                <mxCell id="auUNiC2Mis4MEqBHwmfJ-11" value="" style="endArrow=none;html=1;rounded=0;jumpStyle=none;startArrow=classic;startFill=1;endFill=0;" parent="DMxsckBU2M_JoR_AKvYi-1" edge="1">
                    <mxGeometry width="50" height="50" relative="1" as="geometry">
                        <mxPoint x="430" y="320" as="sourcePoint"/>
                        <mxPoint x="240" y="320" as="targetPoint"/>
                    </mxGeometry>
                </mxCell>
                <mxCell id="auUNiC2Mis4MEqBHwmfJ-12" value="" style="endArrow=classic;html=1;rounded=0;" parent="DMxsckBU2M_JoR_AKvYi-1" edge="1">
                    <mxGeometry width="50" height="50" relative="1" as="geometry">
                        <mxPoint x="430" y="170" as="sourcePoint"/>
                        <mxPoint x="240" y="310" as="targetPoint"/>
                    </mxGeometry>
                </mxCell>
                <mxCell id="auUNiC2Mis4MEqBHwmfJ-13" value="" style="endArrow=none;html=1;rounded=0;jumpStyle=none;startArrow=classic;startFill=1;endFill=0;" parent="DMxsckBU2M_JoR_AKvYi-1" edge="1">
                    <mxGeometry width="50" height="50" relative="1" as="geometry">
                        <mxPoint x="240" y="470" as="sourcePoint"/>
                        <mxPoint x="430" y="330" as="targetPoint"/>
                    </mxGeometry>
                </mxCell>
                <mxCell id="auUNiC2Mis4MEqBHwmfJ-14" value="ベンチマーク&lt;br&gt;情報一覧画面" style="shape=umlBoundary;whiteSpace=wrap;html=1;fillColor=#dae8fc;strokeColor=#6c8ebf;" parent="DMxsckBU2M_JoR_AKvYi-1" vertex="1">
                    <mxGeometry x="120" y="280" width="100" height="80" as="geometry"/>
                </mxCell>
                <mxCell id="auUNiC2Mis4MEqBHwmfJ-15" value="ベンチマーク&lt;br&gt;マスタ情報&lt;br&gt;を取得する" style="ellipse;shape=umlControl;whiteSpace=wrap;html=1;fillColor=#f8cecc;strokeColor=#b85450;" parent="DMxsckBU2M_JoR_AKvYi-1" vertex="1">
                    <mxGeometry x="440" y="110" width="80" height="90" as="geometry"/>
                </mxCell>
                <mxCell id="auUNiC2Mis4MEqBHwmfJ-16" value="削除する" style="ellipse;shape=umlControl;whiteSpace=wrap;html=1;fillColor=#f8cecc;strokeColor=#b85450;" parent="DMxsckBU2M_JoR_AKvYi-1" vertex="1">
                    <mxGeometry x="445" y="440" width="70" height="80" as="geometry"/>
                </mxCell>
                <mxCell id="auUNiC2Mis4MEqBHwmfJ-17" value="" style="endArrow=none;html=1;rounded=0;jumpStyle=none;startArrow=classic;startFill=1;endFill=0;" parent="DMxsckBU2M_JoR_AKvYi-1" edge="1">
                    <mxGeometry width="50" height="50" relative="1" as="geometry">
                        <mxPoint x="430" y="480" as="sourcePoint"/>
                        <mxPoint x="240" y="480" as="targetPoint"/>
                    </mxGeometry>
                </mxCell>
                <mxCell id="auUNiC2Mis4MEqBHwmfJ-18" value="" style="endArrow=classic;html=1;rounded=0;jumpStyle=none;startArrow=classic;startFill=1;endFill=1;" parent="DMxsckBU2M_JoR_AKvYi-1" edge="1">
                    <mxGeometry width="50" height="50" relative="1" as="geometry">
                        <mxPoint x="710" y="250" as="sourcePoint"/>
                        <mxPoint x="530" y="480" as="targetPoint"/>
                    </mxGeometry>
                </mxCell>
                <mxCell id="2Z8oQqjoqmFL6WJPvkfP-1" value="ベンチマーク情報&lt;br&gt;を削除" style="edgeLabel;html=1;align=center;verticalAlign=middle;resizable=0;points=[];" parent="auUNiC2Mis4MEqBHwmfJ-18" vertex="1" connectable="0">
                    <mxGeometry x="0.1143" y="2" relative="1" as="geometry">
                        <mxPoint x="38" y="-59" as="offset"/>
                    </mxGeometry>
                </mxCell>
                <mxCell id="la75sHiAkwk_fY0pO1k2-0" value="ベンチマークマスタ_削除" style="rounded=0;whiteSpace=wrap;html=1;fillColor=#ffe6cc;strokeColor=#d79b00;fontStyle=1;fontSize=18;" parent="DMxsckBU2M_JoR_AKvYi-1" vertex="1">
                    <mxGeometry x="-160" y="70" width="250" height="60" as="geometry"/>
                </mxCell>
                <mxCell id="p75JA5eRPVBYtpdVAzYU-0" value="管理者&lt;br&gt;正規社員" style="shape=umlActor;verticalLabelPosition=bottom;verticalAlign=top;html=1;" parent="DMxsckBU2M_JoR_AKvYi-1" vertex="1">
                    <mxGeometry x="-70" y="280" width="30" height="60" as="geometry"/>
                </mxCell>
                <mxCell id="p75JA5eRPVBYtpdVAzYU-1" value="" style="endArrow=classic;html=1;rounded=0;" parent="DMxsckBU2M_JoR_AKvYi-1" edge="1">
                    <mxGeometry width="50" height="50" relative="1" as="geometry">
                        <mxPoint x="-30.000000000000227" y="320" as="sourcePoint"/>
                        <mxPoint x="110" y="159.9999999999999" as="targetPoint"/>
                    </mxGeometry>
                </mxCell>
                <mxCell id="p75JA5eRPVBYtpdVAzYU-2" value="「ベンチマークマスタ情報」&lt;br&gt;を押下" style="edgeLabel;html=1;align=center;verticalAlign=middle;resizable=0;points=[];" parent="p75JA5eRPVBYtpdVAzYU-1" vertex="1" connectable="0">
                    <mxGeometry x="0.2118" y="-2" relative="1" as="geometry">
                        <mxPoint x="-9" y="10" as="offset"/>
                    </mxGeometry>
                </mxCell>
                <mxCell id="p75JA5eRPVBYtpdVAzYU-3" value="" style="endArrow=classic;html=1;rounded=0;" parent="DMxsckBU2M_JoR_AKvYi-1" edge="1">
                    <mxGeometry width="50" height="50" relative="1" as="geometry">
                        <mxPoint x="-30.000000000000227" y="320" as="sourcePoint"/>
                        <mxPoint x="110" y="480" as="targetPoint"/>
                    </mxGeometry>
                </mxCell>
                <mxCell id="p75JA5eRPVBYtpdVAzYU-4" value="「削除」を押下" style="edgeLabel;html=1;align=center;verticalAlign=middle;resizable=0;points=[];" parent="p75JA5eRPVBYtpdVAzYU-3" vertex="1" connectable="0">
                    <mxGeometry x="0.1529" y="1" relative="1" as="geometry">
                        <mxPoint x="1" as="offset"/>
                    </mxGeometry>
                </mxCell>
                <mxCell id="p75JA5eRPVBYtpdVAzYU-5" value="" style="endArrow=classic;html=1;rounded=0;" parent="DMxsckBU2M_JoR_AKvYi-1" edge="1">
                    <mxGeometry width="50" height="50" relative="1" as="geometry">
                        <mxPoint x="-30.000000000000227" y="320" as="sourcePoint"/>
                        <mxPoint x="110" y="320" as="targetPoint"/>
                    </mxGeometry>
                </mxCell>
                <mxCell id="p75JA5eRPVBYtpdVAzYU-6" value="ベンチマーク情報&lt;br&gt;を選択" style="edgeLabel;html=1;align=center;verticalAlign=middle;resizable=0;points=[];" parent="p75JA5eRPVBYtpdVAzYU-5" vertex="1" connectable="0">
                    <mxGeometry x="0.5476" y="-1" relative="1" as="geometry">
                        <mxPoint x="-38" y="-1" as="offset"/>
                    </mxGeometry>
                </mxCell>
                <mxCell id="2Z8oQqjoqmFL6WJPvkfP-0" value="" style="curved=1;endArrow=classic;html=1;rounded=0;" parent="DMxsckBU2M_JoR_AKvYi-1" edge="1">
                    <mxGeometry width="50" height="50" relative="1" as="geometry">
                        <mxPoint x="520" y="460" as="sourcePoint"/>
                        <mxPoint x="520" y="169.9999999999999" as="targetPoint"/>
                        <Array as="points">
                            <mxPoint x="600" y="250"/>
                        </Array>
                    </mxGeometry>
                </mxCell>
                <mxCell id="Inf7mnN_D2EJ8YDl7Xxm-0" value="CPUベンチマークモデル&lt;span style=&quot;color: rgba(0 , 0 , 0 , 0) ; font-family: monospace ; font-size: 0px&quot;&gt;%3CmxGraphModel%3E%3Croot%3E%3CmxCell%20id%3D%220%22%2F%3E%3CmxCell%20id%3D%221%22%20parent%3D%220%22%2F%3E%3CmxCell%20id%3D%222%22%20value%3D%22%E5%A3%B2%E4%B8%8A%E6%83%85%E5%A0%B1%26lt%3Bbr%26gt%3B%E3%83%A2%E3%83%87%E3%83%AB%22%20style%3D%22ellipse%3Bshape%3DumlEntity%3BwhiteSpace%3Dwrap%3Bhtml%3D1%3BfillColor%3D%23d5e8d4%3BstrokeColor%3D%2382b366%3B%22%20vertex%3D%221%22%20parent%3D%221%22%3E%3CmxGeometry%20x%3D%22727%22%20y%3D%22407%22%20width%3D%2280%22%20height%3D%2280%22%20as%3D%22geometry%22%2F%3E%3C%2FmxCell%3E%3CmxCell%20id%3D%223%22%20value%3D%22%22%20style%3D%22endArrow%3Dclassic%3Bhtml%3D1%3Brounded%3D0%3BstartArrow%3Dclassic%3BstartFill%3D1%3B%22%20edge%3D%221%22%20parent%3D%221%22%3E%3CmxGeometry%20width%3D%2250%22%20height%3D%2250%22%20relative%3D%221%22%20as%3D%22geometry%22%3E%3CmxPoint%20x%3D%22534%22%20y%3D%22172%22%20as%3D%22sourcePoint%22%2F%3E%3CmxPoint%20x%3D%22717%22%20y%3D%22261%22%20as%3D%22targetPoint%22%2F%3E%3C%2FmxGeometry%3E%3C%2FmxCell%3E%3CmxCell%20id%3D%224%22%20value%3D%22%E5%95%86%E5%93%81%E6%83%85%E5%A0%B1%26lt%3Bbr%26gt%3B%E3%83%A2%E3%83%87%E3%83%AB%22%20style%3D%22ellipse%3Bshape%3DumlEntity%3BwhiteSpace%3Dwrap%3Bhtml%3D1%3BfillColor%3D%23d5e8d4%3BstrokeColor%3D%2382b366%3B%22%20vertex%3D%221%22%20parent%3D%221%22%3E%3CmxGeometry%20x%3D%22727%22%20y%3D%22314%22%20width%3D%2280%22%20height%3D%2280%22%20as%3D%22geometry%22%2F%3E%3C%2FmxCell%3E%3CmxCell%20id%3D%225%22%20value%3D%22%E5%BA%97%E8%88%97%E6%83%85%E5%A0%B1%26lt%3Bbr%26gt%3B%E3%83%A2%E3%83%87%E3%83%AB%22%20style%3D%22ellipse%3Bshape%3DumlEntity%3BwhiteSpace%3Dwrap%3Bhtml%3D1%3BfillColor%3D%23d5e8d4%3BstrokeColor%3D%2382b366%3B%22%20vertex%3D%221%22%20parent%3D%221%22%3E%3CmxGeometry%20x%3D%22727%22%20y%3D%22221%22%20width%3D%2280%22%20height%3D%2280%22%20as%3D%22geometry%22%2F%3E%3C%2FmxCell%3E%3CmxCell%20id%3D%226%22%20value%3D%22%E5%BE%93%E6%A5%AD%E5%93%A1%E6%83%85%E5%A0%B1%26lt%3Bbr%26gt%3B%E3%83%A2%E3%83%87%E3%83%AB%22%20style%3D%22ellipse%3Bshape%3DumlEntity%3BwhiteSpace%3Dwrap%3Bhtml%3D1%3BfillColor%3D%23d5e8d4%3BstrokeColor%3D%2382b366%3B%22%20vertex%3D%221%22%20parent%3D%221%22%3E%3CmxGeometry%20x%3D%22727%22%20y%3D%22128%22%20width%3D%2280%22%20height%3D%2280%22%20as%3D%22geometry%22%2F%3E%3C%2FmxCell%3E%3CmxCell%20id%3D%227%22%20value%3D%22%22%20style%3D%22endArrow%3Dclassic%3Bhtml%3D1%3Brounded%3D0%3BstartArrow%3Dclassic%3BstartFill%3D1%3B%22%20edge%3D%221%22%20parent%3D%221%22%3E%3CmxGeometry%20width%3D%2250%22%20height%3D%2250%22%20relative%3D%221%22%20as%3D%22geometry%22%3E%3CmxPoint%20x%3D%22530%22%20y%3D%22157%22%20as%3D%22sourcePoint%22%2F%3E%3CmxPoint%20x%3D%22714%22%20y%3D%22170%22%20as%3D%22targetPoint%22%2F%3E%3C%2FmxGeometry%3E%3C%2FmxCell%3E%3CmxCell%20id%3D%228%22%20value%3D%22%22%20style%3D%22endArrow%3Dclassic%3Bhtml%3D1%3Brounded%3D0%3BstartArrow%3Dclassic%3BstartFill%3D1%3B%22%20edge%3D%221%22%20parent%3D%221%22%3E%3CmxGeometry%20width%3D%2250%22%20height%3D%2250%22%20relative%3D%221%22%20as%3D%22geometry%22%3E%3CmxPoint%20x%3D%22526%22%20y%3D%22184%22%20as%3D%22sourcePoint%22%2F%3E%3CmxPoint%20x%3D%22718%22%20y%3D%22346%22%20as%3D%22targetPoint%22%2F%3E%3C%2FmxGeometry%3E%3C%2FmxCell%3E%3CmxCell%20id%3D%229%22%20value%3D%22%22%20style%3D%22endArrow%3Dclassic%3Bhtml%3D1%3Brounded%3D0%3BstartArrow%3Dclassic%3BstartFill%3D1%3B%22%20edge%3D%221%22%20parent%3D%221%22%3E%3CmxGeometry%20width%3D%2250%22%20height%3D%2250%22%20relative%3D%221%22%20as%3D%22geometry%22%3E%3CmxPoint%20x%3D%22518%22%20y%3D%22197%22%20as%3D%22sourcePoint%22%2F%3E%3CmxPoint%20x%3D%22717%22%20y%3D%22447%22%20as%3D%22targetPoint%22%2F%3E%3C%2FmxGeometry%3E%3C%2FmxCell%3E%3C%2Froot%3E%3C%2FmxGraphModel%3E&lt;/span&gt;" style="ellipse;shape=umlEntity;whiteSpace=wrap;html=1;fillColor=#d5e8d4;strokeColor=#82b366;" parent="DMxsckBU2M_JoR_AKvYi-1" vertex="1">
                    <mxGeometry x="720" y="200" width="80" height="80" as="geometry"/>
                </mxCell>
                <mxCell id="Inf7mnN_D2EJ8YDl7Xxm-1" value="" style="endArrow=classic;html=1;rounded=0;startArrow=classic;startFill=1;" parent="DMxsckBU2M_JoR_AKvYi-1" edge="1">
                    <mxGeometry width="50" height="50" relative="1" as="geometry">
                        <mxPoint x="520" y="160" as="sourcePoint"/>
                        <mxPoint x="710" y="240" as="targetPoint"/>
                    </mxGeometry>
                </mxCell>
                <mxCell id="Inf7mnN_D2EJ8YDl7Xxm-2" value="GPUベンチマークモデル&lt;span style=&quot;color: rgba(0 , 0 , 0 , 0) ; font-family: monospace ; font-size: 0px&quot;&gt;%3CmxGraphModel%3E%3Croot%3E%3CmxCell%20id%3D%220%22%2F%3E%3CmxCell%20id%3D%221%22%20parent%3D%220%22%2F%3E%3CmxCell%20id%3D%222%22%20value%3D%22%E5%A3%B2%E4%B8%8A%E6%83%85%E5%A0%B1%26lt%3Bbr%26gt%3B%E3%83%A2%E3%83%87%E3%83%AB%22%20style%3D%22ellipse%3Bshape%3DumlEntity%3BwhiteSpace%3Dwrap%3Bhtml%3D1%3BfillColor%3D%23d5e8d4%3BstrokeColor%3D%2382b366%3B%22%20vertex%3D%221%22%20parent%3D%221%22%3E%3CmxGeometry%20x%3D%22727%22%20y%3D%22407%22%20width%3D%2280%22%20height%3D%2280%22%20as%3D%22geometry%22%2F%3E%3C%2FmxCell%3E%3CmxCell%20id%3D%223%22%20value%3D%22%22%20style%3D%22endArrow%3Dclassic%3Bhtml%3D1%3Brounded%3D0%3BstartArrow%3Dclassic%3BstartFill%3D1%3B%22%20edge%3D%221%22%20parent%3D%221%22%3E%3CmxGeometry%20width%3D%2250%22%20height%3D%2250%22%20relative%3D%221%22%20as%3D%22geometry%22%3E%3CmxPoint%20x%3D%22534%22%20y%3D%22172%22%20as%3D%22sourcePoint%22%2F%3E%3CmxPoint%20x%3D%22717%22%20y%3D%22261%22%20as%3D%22targetPoint%22%2F%3E%3C%2FmxGeometry%3E%3C%2FmxCell%3E%3CmxCell%20id%3D%224%22%20value%3D%22%E5%95%86%E5%93%81%E6%83%85%E5%A0%B1%26lt%3Bbr%26gt%3B%E3%83%A2%E3%83%87%E3%83%AB%22%20style%3D%22ellipse%3Bshape%3DumlEntity%3BwhiteSpace%3Dwrap%3Bhtml%3D1%3BfillColor%3D%23d5e8d4%3BstrokeColor%3D%2382b366%3B%22%20vertex%3D%221%22%20parent%3D%221%22%3E%3CmxGeometry%20x%3D%22727%22%20y%3D%22314%22%20width%3D%2280%22%20height%3D%2280%22%20as%3D%22geometry%22%2F%3E%3C%2FmxCell%3E%3CmxCell%20id%3D%225%22%20value%3D%22%E5%BA%97%E8%88%97%E6%83%85%E5%A0%B1%26lt%3Bbr%26gt%3B%E3%83%A2%E3%83%87%E3%83%AB%22%20style%3D%22ellipse%3Bshape%3DumlEntity%3BwhiteSpace%3Dwrap%3Bhtml%3D1%3BfillColor%3D%23d5e8d4%3BstrokeColor%3D%2382b366%3B%22%20vertex%3D%221%22%20parent%3D%221%22%3E%3CmxGeometry%20x%3D%22727%22%20y%3D%22221%22%20width%3D%2280%22%20height%3D%2280%22%20as%3D%22geometry%22%2F%3E%3C%2FmxCell%3E%3CmxCell%20id%3D%226%22%20value%3D%22%E5%BE%93%E6%A5%AD%E5%93%A1%E6%83%85%E5%A0%B1%26lt%3Bbr%26gt%3B%E3%83%A2%E3%83%87%E3%83%AB%22%20style%3D%22ellipse%3Bshape%3DumlEntity%3BwhiteSpace%3Dwrap%3Bhtml%3D1%3BfillColor%3D%23d5e8d4%3BstrokeColor%3D%2382b366%3B%22%20vertex%3D%221%22%20parent%3D%221%22%3E%3CmxGeometry%20x%3D%22727%22%20y%3D%22128%22%20width%3D%2280%22%20height%3D%2280%22%20as%3D%22geometry%22%2F%3E%3C%2FmxCell%3E%3CmxCell%20id%3D%227%22%20value%3D%22%22%20style%3D%22endArrow%3Dclassic%3Bhtml%3D1%3Brounded%3D0%3BstartArrow%3Dclassic%3BstartFill%3D1%3B%22%20edge%3D%221%22%20parent%3D%221%22%3E%3CmxGeometry%20width%3D%2250%22%20height%3D%2250%22%20relative%3D%221%22%20as%3D%22geometry%22%3E%3CmxPoint%20x%3D%22530%22%20y%3D%22157%22%20as%3D%22sourcePoint%22%2F%3E%3CmxPoint%20x%3D%22714%22%20y%3D%22170%22%20as%3D%22targetPoint%22%2F%3E%3C%2FmxGeometry%3E%3C%2FmxCell%3E%3CmxCell%20id%3D%228%22%20value%3D%22%22%20style%3D%22endArrow%3Dclassic%3Bhtml%3D1%3Brounded%3D0%3BstartArrow%3Dclassic%3BstartFill%3D1%3B%22%20edge%3D%221%22%20parent%3D%221%22%3E%3CmxGeometry%20width%3D%2250%22%20height%3D%2250%22%20relative%3D%221%22%20as%3D%22geometry%22%3E%3CmxPoint%20x%3D%22526%22%20y%3D%22184%22%20as%3D%22sourcePoint%22%2F%3E%3CmxPoint%20x%3D%22718%22%20y%3D%22346%22%20as%3D%22targetPoint%22%2F%3E%3C%2FmxGeometry%3E%3C%2FmxCell%3E%3CmxCell%20id%3D%229%22%20value%3D%22%22%20style%3D%22endArrow%3Dclassic%3Bhtml%3D1%3Brounded%3D0%3BstartArrow%3Dclassic%3BstartFill%3D1%3B%22%20edge%3D%221%22%20parent%3D%221%22%3E%3CmxGeometry%20width%3D%2250%22%20height%3D%2250%22%20relative%3D%221%22%20as%3D%22geometry%22%3E%3CmxPoint%20x%3D%22518%22%20y%3D%22197%22%20as%3D%22sourcePoint%22%2F%3E%3CmxPoint%20x%3D%22717%22%20y%3D%22447%22%20as%3D%22targetPoint%22%2F%3E%3C%2FmxGeometry%3E%3C%2FmxCell%3E%3C%2Froot%3E%3C%2FmxGraphModel%3E&lt;/span&gt;" style="ellipse;shape=umlEntity;whiteSpace=wrap;html=1;fillColor=#d5e8d4;strokeColor=#82b366;" parent="DMxsckBU2M_JoR_AKvYi-1" vertex="1">
                    <mxGeometry x="720" y="104" width="80" height="80" as="geometry"/>
                </mxCell>
                <mxCell id="Inf7mnN_D2EJ8YDl7Xxm-3" value="" style="endArrow=classic;html=1;rounded=0;startArrow=classic;startFill=1;" parent="DMxsckBU2M_JoR_AKvYi-1" edge="1">
                    <mxGeometry width="50" height="50" relative="1" as="geometry">
                        <mxPoint x="530" y="153" as="sourcePoint"/>
                        <mxPoint x="709" y="143" as="targetPoint"/>
                    </mxGeometry>
                </mxCell>
            </root>
        </mxGraphModel>
    </diagram>
</mxfile>